<svg xmlns="http://www.w3.org/2000/svg" xmlns:xlink="http://www.w3.org/1999/xlink" version="1.1" width="1050pt" height="1050pt" viewBox="0 0 1050 1050">
<defs>
<clipPath id="clip_0">
<path transform="matrix(.24,0,0,.24,0,0)" d="M0 0H4375V4375H0Z" fill-rule="evenodd"/>
</clipPath>
<clipPath id="clip_1">
<path transform="matrix(.24,0,0,.24,0,0)" d="M0 0H4375V4375H0Z" fill-rule="evenodd"/>
</clipPath>
<clipPath id="clip_2">
<path transform="matrix(.24,0,0,.24,0,0)" d="M241.6593 75.32557H4132.284V4300.3259H241.6593Z" fill-rule="evenodd"/>
</clipPath>
</defs>
<g clip-path="url(#clip_0)">
<path transform="matrix(.75,0,0,.75,0,0)" d="M0 0H1400V1400H0Z" fill="#ffffff"/>
</g>
<g clip-path="url(#clip_1)">
<path transform="matrix(.75,0,0,.75,0,0)" d="M0 0H1400V1400H0Z" fill="#ffffff"/>
</g>
<g clip-path="url(#clip_2)">
<path transform="matrix(3.6145359,0,0,3.6145359,-242.00827,-215.44158)" d="M251.69 84.117C249.59 72.77 238.7 65.266 227.34 67.35899L103.14 90.28099C91.797 92.37499 84.293 103.26999 86.391 114.619998L121.35 304.05C123.439998 315.4 134.34 322.9 145.69 320.8L269.89 297.88999C281.24003 295.78999 288.74003 284.88999 286.65003 273.53999L251.69004 84.11998" fill="#ffffff"/>
<path transform="matrix(3.6145359,0,0,3.6145359,-242.00827,-215.44158)" d="M231.16 69.281C230.03 69.281 228.88 69.387 227.76001 69.594L103.56001 92.51601C98.66402 93.41801 94.418018 96.172008 91.598018 100.270008 88.777019 104.37 87.71902 109.32001 88.62102 114.21001L123.58002 303.64C125.210018 312.47 132.91002 318.89 141.88002 318.89 143.01003 318.89 144.15003 318.78004 145.28002 318.57L269.48 295.65C274.37004 294.75 278.62004 292 281.44 287.9 284.25999 283.8 285.32 278.85 284.41 273.94999L249.45001 84.52998C247.82 75.694988 240.13 69.28098 231.16 69.28098V69.281ZM141.88 323.431C130.71 323.431 121.14001 315.451 119.11 304.461L84.156009 115.041C83.031009 108.951007 84.34401 102.791 87.855 97.696 91.36301 92.599 96.648 89.173 102.73 88.048L226.93 65.12599C228.32999 64.86799 229.75 64.73899 231.15999 64.73899 242.31999 64.73899 251.88999 72.71599 253.91999 83.703998L288.87998 273.13398C289.99998 279.21397 288.68998 285.38398 285.17997 290.47398 281.66996 295.57398 276.38996 299.00398 270.29997 300.12397L146.09996 323.04399C144.70996 323.304 143.28997 323.434 141.87996 323.434" fill="#737373"/>
<path transform="matrix(3.6145359,0,0,3.6145359,-242.00827,-215.44158)" d="M231.72 117.81C230.27 109.93 222.71 104.729999 214.84 106.18L128.69 122.08C120.82 123.54 115.61 131.09 117.060009 138.97L141.31 270.36C142.77 278.22999 150.31999 283.43998 158.2 281.97999L244.35 266.08998C252.22 264.62998 257.43 257.06999 255.97 249.19997L231.72 117.80997" fill="#ffffff"/>
<path transform="matrix(3.6145359,0,0,3.6145359,-242.00827,-215.44158)" d="M217.48 108.21C216.73999 108.21 215.98999 108.28 215.25 108.42L129.1 124.32C122.47001 125.54 118.07001 131.93 119.3 138.55L143.55 269.95C144.62001 275.75 149.66 279.96003 155.55 279.96003 156.3 279.96003 157.05 279.89 157.79001 279.75004L243.94 263.85005C250.56 262.63005 254.96 256.24006 253.74 249.61003L229.49 118.22003C228.42 112.42003 223.37001 108.21003 217.48001 108.21003L217.48 108.21ZM155.54999 284.5C147.47998 284.5 140.54999 278.73 139.07999 270.77L114.82999 139.37999C113.14999 130.29 119.179988 121.52999 128.27999 119.84999L214.43 103.94999C215.43999 103.75999 216.45999 103.66999 217.48 103.66999 225.56 103.66999 232.48999 109.43999 233.95999 117.38999L258.19999 248.78998C259.87998 257.87998 253.84998 266.63999 244.75998 268.31999L158.60999 284.21998C157.59999 284.39997 156.56999 284.49998 155.54999 284.49998" fill="#737373"/>
<path transform="matrix(3.6145359,0,0,3.6145359,-242.00827,-215.44158)" d="M236 172.14C234.17 168.47 230.23 166.34 226.16 166.81L200.59 169.76 187.33 148.48C185.21 145.08 181.23 143.31999 177.29001 144.05 173.34001 144.77 170.25002 147.84 169.48001 151.77L164.69002 176.39 139.75002 182.75C135.78002 183.77 132.86002 187.17 132.46002 191.25 132.06003 195.34 134.26003 199.23 137.96002 201L160.77002 211.91 158.03002 238.37C157.60002 242.51999 159.86002 246.48999 163.65001 248.23 167.44 249.98 171.92002 249.12 174.8 246.09L192.65001 227.31 216.03002 238.48C217.93001 239.39 220.03002 239.64 222.00002 239.26999 223.94002 238.91999 225.77002 237.98 227.21002 236.49999 230.12003 233.51999 230.82003 229.00998 228.94002 225.28998L216.93003 201.53998 234.35002 183.20998C237.18003 180.23998 237.84003 175.80998 236.00002 172.13999" fill="#ffffff"/>
<path transform="matrix(3.6145359,0,0,3.6145359,-242.00827,-215.44158)" d="M179.05 146.16C178.6 146.16 178.14 146.2 177.7 146.28 174.65 146.84 172.3 149.17 171.70999 152.20999L166.90999 176.81999C166.74999 177.68999 166.09999 178.37999 165.24999 178.59L140.31998 184.95999C137.26998 185.73 135.02999 188.34999 134.71997 191.46999 134.40996 194.58998 136.10997 197.59999 138.93997 198.94998L161.74997 209.85999C162.61997 210.26999 163.12998 211.18 163.02997 212.13999L160.28997 238.60999C159.95996 241.78998 161.68996 244.82999 164.59996 246.16999 167.44997 247.47998 170.99996 246.79999 173.14997 244.52999L190.99997 225.74999C191.67996 225.02999 192.73998 224.83998 193.62998 225.25998L217.00998 236.42998C218.43997 237.11998 220.03998 237.32997 221.58998 237.03998 223.11998 236.75998 224.49999 236.01998 225.57999 234.90998 227.81999 232.61998 228.35999 229.16997 226.90999 226.30997L214.9 202.56996C214.47 201.70996 214.62 200.66997 215.29 199.97997L232.7 181.64997C234.86 179.37996 235.37999 175.95996 233.97 173.15996 232.57 170.34996 229.59 168.69995 226.42 169.06996L200.86 172.01996C199.98 172.11997 199.13 171.70996 198.67 170.95996L185.4 149.67996C184.03 147.46996 181.65 146.15996 179.04999 146.15996L179.05 146.16ZM167.73001 251.4C165.98001 251.4 164.29001 251.03 162.70001 250.29999 158.02002 248.13999 155.24 243.26 155.77002 238.13999L158.35002 213.26999 136.98003 203.04999C132.43003 200.87999 129.71002 196.04999 130.20003 191.02999 130.69004 186.00998 134.30004 181.79999 139.19004 180.54999L162.73004 174.54999 167.25005 151.34C168.20005 146.45 171.98004 142.70999 176.87004 141.81 177.59004 141.68 178.32004 141.61 179.05004 141.61 183.23003 141.61 187.05004 143.73 189.26004 147.28L201.76004 167.34 225.90004 164.55C226.36005 164.5 226.82004 164.47 227.28005 164.47 231.87004 164.47 235.99005 167.02 238.04004 171.13 240.29004 175.64 239.47003 181.12001 235.99004 184.78L219.68004 201.95 230.96004 224.26C233.29004 228.84999 232.43004 234.40999 228.83003 238.09 227.09003 239.87999 224.87003 241.05 222.42003 241.51 219.92003 241.97 217.34003 241.62999 215.05004 240.53L193.16004 230.06999 176.45005 247.65999C174.19005 250.04 171.01004 251.4 167.73004 251.4" fill="#737373"/>
<path transform="matrix(3.6145359,0,0,3.6145359,-242.00827,-215.44158)" d="M242.07 82.516C241.66 81.702999 240.79001 81.229999 239.88 81.336L234.21 81.988 231.27 77.27C230.8 76.516 229.92 76.125 229.04001 76.284999 228.17002 76.445 227.48001 77.129 227.31002 77.99999L226.25002 83.46099 220.72002 84.870998C219.84001 85.09799 219.19002 85.84799 219.10002 86.754 219.02002 87.659999 219.50002 88.527 220.32003 88.922L225.38002 91.336 224.77002 97.202999C224.68003 98.129 225.18003 99.007999 226.02002 99.391 226.86002 99.781 227.86002 99.59 228.49002 98.918L232.45003 94.754 237.64003 97.229999C238.06003 97.434 238.52004 97.48399 238.96004 97.406 239.39003 97.327999 239.80004 97.117 240.12004 96.789 240.76004 96.129 240.92005 95.129 240.50005 94.305L237.84004 89.035 241.70005 84.97301C242.33005 84.312007 242.47005 83.33201 242.07004 82.51601" fill="#ffffff"/>
<path transform="matrix(3.6145359,0,0,3.6145359,-242.00827,-215.44158)" d="M221.57 86.996 226.36 89.285C227.23 89.699008 227.74 90.61301 227.64 91.57001L227.06999 97.12101 230.79999 93.18801C231.47998 92.473018 232.54999 92.27701 233.43 92.70301L238.32999 95.04301 235.80998 90.062007C235.37999 89.203 235.52999 88.164 236.18999 87.47301L239.84999 83.62101 234.48 84.24601C233.61 84.34801 232.75 83.93801 232.29 83.19101L229.48999 78.70701 228.48 83.89501C228.31 84.75401 227.65999 85.44101 226.81 85.66001L221.57 86.996ZM226.93001 101.86C226.28002 101.86 225.65001 101.73 225.07 101.45 223.34001 100.659999 222.32 98.85899 222.52 96.968997L222.96 92.69499 219.34001 90.968997C217.66002 90.163997 216.66002 88.382999 216.84001 86.53099 217.02 84.68399 218.36002 83.13299 220.16002 82.67199L224.30002 81.61299 225.09001 77.565998C225.43001 75.76599 226.82 74.38699 228.63 74.050998 230.42 73.72299 232.24 74.531 233.20001 76.065998L235.38 79.565998 239.62001 79.077999C241.56002 78.85899 243.27 79.84 244.1 81.504 244.93001 83.164 244.63 85.190998 243.34001 86.539L240.59001 89.441 242.53002 93.277C243.38002 94.973 243.07 97.023 241.74002 98.379 241.10002 99.034999 240.28002 99.473 239.37003 99.641 239.11003 99.687999 238.84003 99.715 238.57003 99.715 237.90003 99.715 237.26003 99.565998 236.66002 99.281L232.96002 97.512 230.14002 100.48C229.30002 101.36 228.13002 101.86 226.93001 101.86" fill="#737373"/>
<path transform="matrix(3.6145359,0,0,3.6145359,-242.00827,-215.44158)" d="M152.92 295.92C152.51 295.1 151.64 294.63 150.73 294.73L145.06999 295.39 142.12 290.67C141.65 289.91 140.76999 289.53 139.89 289.69 139.02 289.85 138.34 290.53 138.16 291.4L137.1 296.86 131.57 298.27C130.69 298.5 130.04001 299.25 129.95001 300.16 129.87001 301.06 130.36002 301.93 131.18001 302.32L136.23001 304.74003 135.62001 310.61003C135.53002 311.53004 136.03002 312.41 136.87001 312.79 137.71 313.18003 138.71 312.99003 139.34001 312.32L143.30002 308.15 148.49002 310.63C148.91002 310.83003 149.38002 310.89 149.81003 310.80003 150.24002 310.73 150.65003 310.52003 150.97003 310.19004 151.61003 309.53004 151.77004 308.53004 151.35004 307.70005L148.69004 302.44004 152.55004 298.37004C153.18004 297.71003 153.32004 296.73 152.92003 295.92" fill="#ffffff"/>
<path transform="matrix(3.6145359,0,0,3.6145359,-242.00827,-215.44158)" d="M132.43 300.4 137.20999 302.69C138.07999 303.1 138.59 304.02 138.48999 304.97L137.91999 310.52 141.65999 306.59C142.33998 305.88 143.38999 305.68 144.29 306.11L149.18 308.44999 146.65999 303.46C146.23 302.61 146.37999 301.56999 147.04 300.88L150.7 297.03 145.31999 297.65C144.45 297.75 143.59999 297.34 143.14 296.59L140.34 292.11 139.33 297.3C139.16 298.15998 138.52 298.84 137.66 299.06L132.43 300.4ZM137.78 315.25999C137.13 315.25999 136.5 315.11997 135.92 314.86 134.2 314.06 133.17 312.25999 133.37 310.37L133.81 306.1 130.2 304.37C128.52 303.56 127.509998 301.78 127.7 299.93 127.88 298.08 129.20999 296.53 131.02 296.07L135.15001 295.02003 135.94 290.96003C136.29001 289.17 137.68001 287.79 139.48 287.45 141.28 287.12004 143.09 287.93003 144.05 289.47L146.23 292.97 150.48 292.48C152.33 292.26 154.12 293.24003 154.95 294.90003 155.78 296.57005 155.48 298.59004 154.2 299.94004L151.44 302.84004 153.38 306.68003C154.23001 308.37004 153.92 310.42 152.59001 311.78004 151.95001 312.44004 151.13 312.88005 150.23001 313.04005 149.96 313.09004 149.69002 313.11006 149.42002 313.11006 148.77002 313.11006 148.11002 312.96006 147.51001 312.68006L143.81002 310.91007 140.99 313.88008C140.16 314.76008 138.99 315.26008 137.78 315.26008" fill="#737373"/>
<path transform="matrix(3.6145359,0,0,3.6145359,-242.00827,-215.44158)" d="M339.16 129.28C339.16 117.74 329.80003 108.38 318.27003 108.38H191.97002C180.43003 108.38 171.07003 117.74 171.07003 129.28V321.9C171.07003 333.44 180.43003 342.8 191.97002 342.8H318.27003C329.80003 342.8 339.16004 333.44 339.16004 321.9V129.28" fill="#ffffff"/>
<path transform="matrix(3.6145359,0,0,3.6145359,-242.00827,-215.44158)" d="M191.97 110.65C181.7 110.65 173.34 119.01 173.34 129.28V321.9C173.34 332.16999 181.7 340.53 191.97 340.53H318.27003C328.54 340.53 336.89 332.17 336.89 321.9V129.28C336.89 119.009998 328.54 110.65 318.27003 110.65H191.97ZM318.27003 345.07H191.97002C179.19002 345.07 168.80002 334.68 168.80002 321.9V129.28C168.80002 116.5 179.19002 106.11 191.97002 106.11H318.27003C331.04 106.11 341.43003 116.5 341.43003 129.28V321.9C341.43003 334.68 331.04 345.07 318.27003 345.07" fill="#737373"/>
<path transform="matrix(3.6145359,0,0,3.6145359,-242.00827,-215.44158)" d="M313.41 158.79C313.41 150.78 306.93 144.29 298.92 144.29H211.32C203.31002 144.29 196.82 150.78 196.82 158.79V292.39C196.82 300.40003 203.31002 306.89 211.32 306.89H298.92C306.93003 306.89 313.41 300.40003 313.41 292.39V158.79001" fill="#ffffff"/>
<path transform="matrix(3.6145359,0,0,3.6145359,-242.00827,-215.44158)" d="M211.32 146.56C204.57 146.56 199.09001 152.05 199.09001 158.79V292.39C199.09001 299.14 204.57 304.62004 211.32 304.62004H298.92C305.66 304.62004 311.14 299.14 311.14 292.39V158.79001C311.14 152.05 305.66 146.56002 298.92 146.56002L211.32 146.56ZM298.92 309.16H211.32C202.07 309.16 194.55 301.64 194.55 292.39V158.79001C194.55 149.54001 202.07 142.02 211.32 142.02H298.92C308.16 142.02 315.69 149.54001 315.69 158.79001V292.39C315.69 301.64 308.16 309.16 298.92 309.16" fill="#737373"/>
<path transform="matrix(3.6145359,0,0,3.6145359,-242.00827,-215.44158)" d="M307.77 212.99C306.62998 209.05 303.13999 206.24 299.05 205.96L273.37998 204.23001 264.18998 180.89002C262.72999 177.16002 259.11997 174.71002 255.11997 174.71002 251.10997 174.71002 247.50997 177.16002 246.03997 180.89002L236.85996 204.23001 211.17996 205.96C207.08997 206.24 203.60996 209.05 202.46996 212.99 201.33995 216.94 202.78997 221.17002 206.10996 223.58L226.55995 238.44 219.05995 263.97C217.88996 267.98 219.38996 272.29 222.79996 274.69 226.20996 277.09 230.77996 277.06 234.14997 274.61003L255.11997 259.38 276.07997 274.61003C277.78996 275.85 279.79997 276.47 281.80998 276.47 283.77998 276.47 285.74998 275.88 287.42997 274.69 290.83998 272.29 292.34999 267.98 291.16996 263.97L283.66996 238.44 304.11997 223.58C307.44996 221.17 308.89997 216.94 307.76997 212.99" fill="#ffffff"/>
<path transform="matrix(3.6145359,0,0,3.6145359,-242.00827,-215.44158)" d="M255.12 176.98C252.01999 176.98 249.29 178.84 248.15999 181.72L238.96999 205.06C238.64998 205.88 237.88999 206.43 237.00998 206.48999L211.33998 208.23C208.20998 208.44 205.51998 210.61 204.64998 213.62 203.78998 216.64 204.90998 219.9 207.44998 221.75L227.89998 236.61C228.67998 237.17 229.00998 238.16 228.73998 239.08L221.23998 264.61003C220.33998 267.68003 221.48998 270.99003 224.10997 272.83003 226.67998 274.64 230.27997 274.62004 232.81998 272.77003L253.77997 257.54C254.57997 256.96003 255.65998 256.96003 256.44999 257.54L277.40998 272.77003C279.95997 274.62004 283.55998 274.64 286.11997 272.83003 288.73997 270.99003 289.88996 267.68003 288.98997 264.61003L281.48997 239.08002C281.21998 238.16002 281.55998 237.17002 282.33998 236.61002L302.78999 221.75002C305.33 219.90001 306.44999 216.64002 305.58 213.62001 304.71 210.61002 302.03 208.44002 298.88999 208.23001L273.21998 206.49C272.34999 206.43001 271.57997 205.88 271.25999 205.06002L262.08 181.72002C260.94999 178.84001 258.21 176.98001 255.11998 176.98001L255.12 176.98ZM228.42 278.74C225.93 278.74 223.53 277.97999 221.48999 276.55 217.29 273.58 215.43 268.27 216.87999 263.33L223.93 239.33998 204.76999 225.41999C200.69998 222.45998 198.88999 217.20998 200.29 212.35999 201.68 207.51999 206 204.03998 211.03 203.69998L235.27 202.05998 243.93001 180.05998C245.75002 175.42998 250.14002 172.43999 255.12001 172.43999 260.09 172.43999 264.48 175.43 266.30003 180.05998L274.96003 202.05998 299.2 203.69998C304.23 204.03998 308.55003 207.51999 309.95 212.35999 311.34004 217.20999 309.54 222.45999 305.46003 225.41999L286.30003 239.33998 293.35 263.33C294.80003 268.27 292.95 273.58 288.74003 276.55 286.7 277.97999 284.31004 278.74 281.81004 278.74 279.26005 278.74 276.81004 277.94999 274.75004 276.44999L255.12003 262.18998 235.49002 276.44999C233.42002 277.94999 230.98003 278.74 228.42002 278.74" fill="#737373"/>
<path transform="matrix(3.6145359,0,0,3.6145359,-242.00827,-215.44158)" d="M329.99 125.96C329.74 125.08 328.97 124.46 328.06 124.4L322.36 124.020008 320.33 118.840007C320 118.01 319.19999 117.46001 318.31999 117.46001 317.42997 117.46001 316.62998 118.01001 316.3 118.840007L314.27 124.020008 308.56999 124.4C307.65998 124.46 306.88999 125.08 306.63999 125.96 306.38999 126.83 306.71 127.77 307.44999 128.3L311.97999 131.6 310.31999 137.27C310.05998 138.15001 310.38999 139.11 311.14997 139.64 311.90998 140.18 312.91996 140.17 313.65998 139.62L318.31999 136.25 322.96 139.62C323.34 139.9 323.78999 140.04 324.22999 140.04 324.66999 140.04 325.11 139.9 325.47999 139.64 326.24 139.11 326.56999 138.15 326.30998 137.27L324.64997 131.6 329.17997 128.3C329.91996 127.770008 330.23997 126.83 329.98997 125.96001" fill="#ffffff"/>
<path transform="matrix(3.6145359,0,0,3.6145359,-242.00827,-215.44158)" d="M318.32 133.97C318.79 133.97 319.25 134.12 319.65 134.41L324.04 137.6 322.47 132.24C322.2 131.32 322.54 130.33 323.31 129.77L327.61 126.64001 322.21 126.28001C321.34 126.22001 320.56999 125.66 320.25 124.850009L318.32 119.93001 316.38 124.850009C316.06 125.66 315.30003 126.22001 314.42 126.28001L309.02003 126.64001 313.32 129.76001C314.09 130.33002 314.43 131.32 314.16 132.24L312.59 137.6 316.98 134.41C317.38 134.12001 317.85 133.97 318.32 133.97ZM312.39 142.31C311.47 142.31 310.59004 142.03 309.84004 141.48999 308.29005 140.4 307.61003 138.43999 308.14 136.62L309.35 132.5 306.11003 130.14C304.61003 129.05 303.94 127.12 304.46003 125.33 304.97004 123.54 306.56004 122.26 308.42 122.130008L312.68003 121.840007 314.19004 118.01C314.86006 116.3 316.48005 115.200008 318.32005 115.200008 320.15003 115.200008 321.77006 116.3 322.44004 118.01L323.95005 121.840007 328.21006 122.130008C330.07005 122.26 331.66007 123.54001 332.18006 125.33 332.69007 127.12 332.02006 129.05 330.52006 130.14L327.28007 132.5 328.49006 136.62C329.03007 138.44 328.34007 140.4 326.79005 141.5 325.27006 142.57 323.14006 142.55 321.63005 141.46L318.32005 139.05 315.00004 141.46C314.24003 142.02 313.34004 142.31002 312.39006 142.31002" fill="#737373"/>
<path transform="matrix(3.6145359,0,0,3.6145359,-242.00827,-215.44158)" d="M203.59 319.63C203.34 318.76 202.56999 318.14 201.66 318.07L195.97 317.69 193.93001 312.52C193.61 311.69 192.81002 311.13999 191.92002 311.13999 191.03002 311.13999 190.23001 311.68998 189.91002 312.52L187.87003 317.69 182.18003 318.07C181.27002 318.14 180.49002 318.76 180.24002 319.63 179.99002 320.51 180.31003 321.45 181.05002 321.98L185.59001 325.28 183.92002 330.94C183.66002 331.83003 184.00002 332.79 184.75002 333.32 185.51001 333.85 186.52002 333.84 187.27002 333.30003L191.92002 329.92 196.57 333.30003C196.95001 333.57 197.39002 333.71003 197.84001 333.71003 198.27 333.71003 198.71 333.58003 199.09001 333.32 199.84001 332.79 200.18001 331.83003 199.91002 330.94L198.25002 325.28 202.79001 321.98C203.52 321.45 203.85 320.51 203.59001 319.63" fill="#ffffff"/>
<path transform="matrix(3.6145359,0,0,3.6145359,-242.00827,-215.44158)" d="M182.63 320.32 186.92 323.44C187.7 324.01 188.04 325 187.77 325.92L186.19 331.27003 190.58 328.09004C191.38 327.51005 192.46 327.51005 193.25 328.09004L197.64 331.27003 196.06999 325.92C195.79999 325 196.14 324.01 196.90999 323.44L201.20999 320.32 195.81 319.96003C194.94 319.90003 194.18 319.34004 193.84999 318.52003L191.92 313.61003 189.98 318.52003C189.65999 319.34004 188.9 319.90003 188.01999 319.96003L182.63 320.32ZM186 335.98C185.08 335.98 184.2 335.71003 183.44 335.17 181.89 334.08003 181.21 332.12004 181.74 330.30003L182.95001 326.18003 179.71 323.82005C178.21 322.73005 177.54001 320.79005 178.06002 319.01005 178.57 317.22004 180.17002 315.93006 182.02002 315.81004L186.28002 315.52003 187.79001 311.68003C188.46 309.98 190.08 308.88005 191.92002 308.88005 193.75002 308.88005 195.37001 309.98005 196.05002 311.68003L197.55002 315.52003 201.81002 315.81004C203.67002 315.93003 205.26001 317.22004 205.78002 319.00004 206.29001 320.79005 205.62001 322.73005 204.12001 323.82005L200.88 326.18003 202.09001 330.30003C202.63 332.12004 201.95001 334.08003 200.39002 335.17 198.88002 336.25 196.73001 336.23 195.23001 335.13L191.92002 332.73 188.61002 335.14C187.84001 335.69 186.94002 335.98 186.00002 335.98" fill="#737373"/>
</g>
</svg>
