<svg xmlns="http://www.w3.org/2000/svg" xmlns:xlink="http://www.w3.org/1999/xlink" version="1.1" width="1050pt" height="1050pt" viewBox="0 0 1050 1050">
<defs>
<clipPath id="clip_0">
<path transform="matrix(.24,0,0,.24,0,0)" d="M0 0H4375V4375H0Z" fill-rule="evenodd"/>
</clipPath>
<clipPath id="clip_1">
<path transform="matrix(.24,0,0,.24,0,0)" d="M0 0H4375V4375H0Z" fill-rule="evenodd"/>
</clipPath>
<clipPath id="clip_2">
<path transform="matrix(.24,0,0,.24,0,0)" d="M218.75 218.75H4156.25V4156.25H218.75Z" fill-rule="evenodd"/>
</clipPath>
</defs>
<g clip-path="url(#clip_0)">
<path transform="matrix(.75,0,0,.75,0,0)" d="M0 0H1400V1400H0Z" fill="#ffffff"/>
</g>
<g clip-path="url(#clip_1)">
<path transform="matrix(.75,0,0,.75,0,0)" d="M0 0H1400V1400H0Z" fill="#ffffff"/>
</g>
<g clip-path="url(#clip_2)">
<path transform="matrix(42.1875,0,0,42.1875,10.3125,1.8750073)" d="M12 1.5C11.884492 1.4998561 11.769014 1.5016199 11.653565 1.5052917 11.538116 1.5089635 11.42276 1.514541 11.307496 1.5220245 11.192231 1.529508 11.077122 1.5388932 10.962167 1.5501803 10.847213 1.5614674 10.732476 1.5746502 10.617956 1.5897285 10.503437 1.6048069 10.389198 1.6217727 10.27524 1.640626 10.161283 1.6594792 10.047667 1.6802094 9.934393 1.7028167 9.82112 1.7254242 9.708251 1.7498964 9.595787 1.7762332 9.483322 1.8025702 9.371323 1.8307576 9.259789 1.8607953 9.148257 1.890833 9.0372509 1.9227049 8.92677 1.9564108 8.81629 1.9901164 8.706397 2.0256377 8.59709 2.0629748 8.487783 2.1003118 8.379124 2.139444 8.271111 2.1803716 8.163097 2.221299 8.05579 2.2639993 7.949187 2.3084727 7.8425848 2.3529459 7.7367465 2.3991676 7.631671 2.447138 7.526596 2.4951087 7.422342 2.5448018 7.3189089 2.596217 7.215476 2.6476324 7.1129209 2.700742 7.011243 2.755546 6.9095647 2.8103502 6.8088195 2.866819 6.709007 2.924952 6.6091949 2.9830852 6.5103704 3.042851 6.412533 3.1042498 6.3146955 3.1656485 6.217899 3.2286463 6.1221435 3.2932432 6.026388 3.3578404 5.9317257 3.4240015 5.838156 3.4917267 5.744587 3.5594516 5.652161 3.6287034 5.5608799 3.6994825 5.4695985 3.7702616 5.3795115 3.842529 5.2906186 3.9162849 5.201725 3.9900408 5.1140739 4.0652449 5.0276658 4.1418969 4.9412577 4.218549 4.8561389 4.296607 4.77231 4.3760716 4.6884806 4.455536 4.605987 4.5363638 4.524829 4.618554 4.4436709 4.700745 4.3638927 4.7842538 4.285494 4.8690807 4.2070949 4.9539077 4.1301186 5.0400059 4.0545647 5.1273758 3.9790107 5.214746 3.9049206 5.3033406 3.8322943 5.393159 3.7596677 5.4829776 3.6885446 5.5739705 3.6189249 5.666138 3.5493055 5.758307 3.4812272 5.8516008 3.4146903 5.9460189 3.348153 6.0404369 3.2831939 6.1359279 3.219812 6.2324917 3.1564306 6.3290565 3.0946613 6.4266417 3.0345042 6.525247 2.9743469 6.6238529 2.9158347 6.723425 2.8589679 6.8239638 2.802101 6.924503 2.74691 7.025954 2.6933954 7.128317 2.6398807 7.230679 2.5880714 7.3338978 2.5379675 7.437972 2.4878636 7.5420467 2.4394925 7.64692 2.3928538 7.7525937 2.3462153 7.858267 2.3013349 7.964681 2.2582124 8.071836 2.21509 8.178992 2.1737495 8.286832 2.1341906 8.395354 2.0946317 8.503876 2.056876 8.613022 2.0209234 8.722791 1.9849709 8.83256 1.9508413 8.942893 1.9185345 9.053791 1.8862277 9.164689 1.8557615 9.276089 1.8271359 9.387992 1.7985103 9.499896 1.7717408 9.612243 1.7468275 9.725032 1.721914 9.83782 1.6988704 9.950989 1.6776965 10.064539 1.6565226 10.178089 1.6372299 10.291958 1.6198186 10.406146 1.6024073 10.520334 1.5868869 10.634778 1.5732571 10.749477 1.5596273 10.864179 1.5478958 10.979073 1.5380626 11.09416 1.5282294 11.209249 1.5202997 11.324467 1.5142737 11.439816 1.5082475 11.555166 1.5041283 11.670585 1.501916 11.786071 1.4997039 11.901556 1.4993997 12.017047 1.5010036 12.132543 1.5026076 12.248039 1.5061188 12.363478 1.5115371 12.478858 1.5169555 12.594238 1.5242782 12.709497 1.5335051 12.8246359 1.542732 12.939774 1.5538582 13.0547289 1.5668836 13.169499 1.579909 13.28427 1.5948266 13.398794 1.6116362 13.513071 1.6284458 13.627349 1.6471384 13.741319 1.6677139 13.854979 1.6882894 13.968638 1.7107366 14.081927 1.7350555 14.194844 1.7593745 14.307763 1.7855519 14.420249 1.8135877 14.532303 1.8416234 14.644356 1.8715024 14.755915 1.9032245 14.866981 1.9349467 14.978047 1.9684948 15.088559 2.0038686 15.198517 2.0392426 15.308475 2.0764228 15.417818 2.1154094 15.5265469 2.1543964 15.635276 2.1951683 15.743331 2.2377256 15.850714 2.280283 15.958095 2.3246024 16.064743 2.3706837 16.17066 2.416765 16.276579 2.4645835 16.381707 2.5141385 16.486044 2.5636936 16.59038 2.6149586 16.693869 2.667933 16.796513 2.720908 16.899157 2.7755638 17.000897 2.8319004 17.101735 2.8882366 17.20257 2.9462233 17.302449 3.00586 17.40137L1.5253899 21.8418C1.519164 21.860529 1.5140641 21.87956 1.5100905 21.898896 1.5061168 21.91823 1.503297 21.93773 1.5016313 21.9574 1.4999654 21.977066 1.4994651 21.996764 1.5001303 22.01649 1.5007956 22.036217 1.5026217 22.055836 1.5056087 22.075348 1.5085956 22.094859 1.5127226 22.114123 1.5179896 22.133145 1.5232565 22.152169 1.5296269 22.170815 1.5371006 22.189084 1.5445742 22.207354 1.5530988 22.225119 1.5626748 22.242379 1.5722506 22.25964 1.5828108 22.276276 1.5943554 22.292286 1.6058997 22.308295 1.6183479 22.323569 1.6316999 22.338105 1.645052 22.352643 1.6592145 22.366343 1.6741878 22.379204 1.689161 22.392066 1.7048402 22.403998 1.7212255 22.415003 1.7376108 22.426009 1.754588 22.43601 1.772157 22.445008 1.7897259 22.454005 1.8077639 22.461932 1.826271 22.468792 1.8447783 22.475655 1.8636257 22.481402 1.882813 22.486033 1.9020003 22.490664 1.9213936 22.494147 1.9409931 22.496483 1.9605928 22.49882 1.9802617 22.49999 2 22.5 2.0541566 22.50007 2.1068898 22.491444 2.1582 22.47412L6.59863 20.99412C6.7712695 21.097826 6.946748 21.196482 7.1250665 21.290089 7.303385 21.383692 7.484247 21.47209 7.667654 21.555287 7.8510606 21.638482 8.036707 21.716332 8.224595 21.78884 8.412483 21.861348 8.602301 21.928395 8.794047 21.989977 8.985794 22.05156 9.179154 22.107577 9.374126 22.15803 9.569097 22.208483 9.765358 22.253289 9.962909 22.292445 10.1604599 22.3316 10.358973 22.365042 10.558448 22.392769 10.757923 22.4205 10.958031 22.44247 11.158771 22.458682 11.35951 22.474892 11.560551 22.485316 11.76189 22.489954 11.963231 22.494593 12.164537 22.493439 12.365811 22.48649 12.567085 22.479542 12.767992 22.46681 12.968532 22.448298 13.169073 22.429783 13.368916 22.405518 13.568059 22.375502 13.767202 22.345486 13.965319 22.309767 14.162408 22.268347 14.359496 22.226927 14.55523 22.179875 14.749611 22.12719 14.94399 22.074503 15.136694 22.016272 15.327722 21.952492 15.518749 21.888714 15.707786 21.819495 15.894829 21.744835 16.081871 21.670174 16.266613 21.590197 16.449053 21.504906 16.631493 21.419611 16.811327 21.32914 16.98856 21.233496 17.165793 21.137852 17.340126 21.037188 17.511565 20.931508 17.683003 20.825827 17.851262 20.715304 18.016337 20.599938 18.181414 20.484572 18.343037 20.364556 18.501204 20.23989 18.659373 20.115221 18.813826 19.986107 18.964562 19.852549 19.115298 19.71899 19.26207 19.581208 19.404875 19.4392 19.54768 19.297192 19.686284 19.151196 19.820685 19.001212 19.955086 18.851227 20.085062 18.6975 20.210616 18.540032 20.33617 18.382567 20.45709 18.22162 20.57338 18.057194 20.689669 17.892767 20.801133 17.725132 20.907773 17.554289 21.014412 17.383444 21.11605 17.209675 21.212687 17.032984 21.309325 16.856289 21.4008 16.676962 21.487116 16.495003 21.57343 16.313046 21.65444 16.128756 21.730149 15.942133 21.805857 15.755511 21.876135 15.566866 21.940983 15.376199 22.00583 15.185532 22.065144 14.993157 22.11892 14.799076 22.172694 14.604995 22.220845 14.409527 22.26337 14.212674 22.305895 14.015821 22.342722 13.817909 22.373854 13.618937 22.404986 13.419964 22.43037 13.220261 22.450007 13.019826 22.469643 12.819391 22.4835 12.618559 22.491578 12.417328 22.499655 12.216098 22.501938 12.014801 22.498429 11.813437 22.494919 11.612075 22.48562 11.41098 22.470536 11.210153 22.45545 11.009325 22.434603 10.809098 22.407994 10.60947 22.381384 10.4098429 22.349055 10.211145 22.311007 10.013378 22.27296 9.815612 22.229258 9.6191029 22.179898 9.423851 22.13054 9.2286 22.07561 9.034929 22.015103 8.84284 21.954596 8.650751 21.888613 8.460561 21.817158 8.272269 21.745703 8.083978 21.668894 7.8978974 21.586728 7.714027 21.504563 7.5301568 21.417178 7.3488018 21.324574 7.1699616 21.23197 6.9911215 21.1343 6.815092 21.031565 6.641874 20.92883 6.4686558 20.821196 6.298535 20.708666 6.1315128 20.596138 5.9644896 20.478899 5.800841 20.35695 5.640567 20.235 5.4802925 20.108546 5.3236577 19.977581 5.170662 19.846617 5.0176665 19.711359 4.8685638 19.571812 4.723354 19.432265 4.578144 19.288657 4.437067 19.14099 4.3001229 18.993323 4.163179 18.841839 4.030595 18.686539 3.9023705 18.531239 3.774146 18.37238 3.6504939 18.209963 3.5314136 18.047547 3.4123333 17.88184 3.2980223 17.712845 3.1884804 17.543848 3.0789383 17.371842 2.9743467 17.196825 2.8747056 17.021809 2.7750645 16.84407 2.6805387 16.663613 2.591128 16.483155 2.5017176 16.300274 2.4175707 16.114972 2.338687 15.929669 2.259803 15.742253 2.1863135 15.552721 2.1182175 15.363189 2.0501216 15.171856 1.9875321 14.978722 1.9304496 14.785586 1.873367 14.59097 1.8218855 14.394873 1.7760053 14.198774 1.730125 14.001519 1.6899217 13.803107 1.6553958 13.604696 1.6208696 13.405456 1.5920777 13.205387 1.56902 13.005318 1.5459622 12.80475 1.528677 12.603686 1.5171642 12.402622 1.5056514 12.201394 1.49993 12 1.5ZM12 21.5C11.77691 21.49984 11.554105 21.491805 11.331583 21.475893 11.109062 21.459984 10.887381 21.43624 10.666537 21.404658 10.445695 21.373074 10.226243 21.333735 10.008182 21.286637 9.79012 21.239539 9.573994 21.184802 9.359801 21.122427 9.14561 21.060051 8.9338879 20.99019 8.724634 20.912846 8.515381 20.8355 8.309119 20.750866 8.10585 20.65894 7.9025809 20.567013 7.70281 20.468026 7.506538 20.361977 7.3102667 20.255928 7.117984 20.143082 6.92969 20.02344 6.8896706 19.998089 6.846912 19.978812 6.8014156 19.96561 6.7559187 19.95241 6.709483 19.945807 6.66211 19.945799 6.6079537 19.945729 6.55522 19.954356 6.50391 19.97168L2.79 21.20947 4.0282804 17.49609C4.0399119 17.460888 4.0475609 17.42484 4.051228 17.38795 4.0548956 17.35106 4.054492 17.314215 4.0500185 17.277413 4.045544 17.24061 4.0371077 17.204739 4.0247085 17.1698 4.012309 17.134863 3.9962466 17.1017 3.9765204 17.07031 3.8837395 16.923174 3.7950698 16.7736 3.7105108 16.62159 3.6259518 16.469582 3.5456315 16.315365 3.4695497 16.15894 3.3934682 16.002516 3.32174 15.844119 3.254365 15.683751 3.18699 15.523384 3.1240705 15.361287 3.0656057 15.19746 3.007141 15.033635 2.9532202 14.868326 2.9038425 14.701535 2.8544648 14.534745 2.809705 14.366724 2.7695633 14.197473 2.7294214 14.028223 2.693958 13.857998 2.6631735 13.686797 2.6323887 13.515596 2.606329 13.34368 2.584994 13.171047 2.5636595 12.998415 2.5470823 12.825327 2.535262 12.651783 2.5234419 12.47824 2.5163966 12.3045029 2.5141266 12.13057 2.5118566 11.956639 2.514365 11.782777 2.5216523 11.608984 2.528939 11.43519 2.5409935 11.261728 2.5578156 11.088597 2.5746377 10.915467 2.5962017 10.742929 2.6225079 10.570984 2.6488143 10.399039 2.6798228 10.227946 2.7155338 10.057705 2.7512449 9.887465 2.7916046 9.718333 2.8366125 9.550311 2.8816205 9.38229 2.931209 9.215631 2.985378 9.050333 3.0395473 8.885036 3.098215 8.721353 3.1613818 8.559281 3.2245486 8.397209 3.2921186 8.236995 3.3640919 8.078638 3.4360655 7.920281 3.5123337 7.76402 3.5928965 7.609855 3.6734596 7.4556906 3.7581957 7.3038547 3.847105 7.1543476 3.9360145 7.0048406 4.0289628 6.857888 4.12595 6.7134907 4.2229368 6.569093 4.323816 6.4274685 4.428588 6.2886159 4.53336 6.149763 4.641866 6.0138928 4.754107 5.8810045 4.8663485 5.748116 4.982154 5.618411 5.101524 5.491889 5.220894 5.365367 5.343649 5.2422187 5.469789 5.1224439 5.595929 5.0026695 5.725263 4.8864495 5.857791 4.7737839 5.9903194 4.6611187 6.1258418 4.552178 6.264358 4.4469625 6.402875 4.341747 6.5441768 4.2404148 6.688263 4.142966 6.83235 4.0455176 6.979004 3.9520996 7.128226 3.8627125 7.2774479 3.7733253 7.4290115 3.688104 7.5829179 3.607048 7.7368247 3.5259922 7.892841 3.4492245 8.050967 3.376745 8.209093 3.3042656 8.36909 3.2361832 8.530958 3.1724983 8.692827 3.1088136 8.856323 3.0496224 9.021445 2.9949246 9.186567 2.9402269 9.353066 2.8901056 9.520944 2.8445602 9.688821 2.7990149 9.857822 2.7581146 10.027947 2.721859 10.198072 2.6856034 10.369066 2.6540478 10.540927 2.6271916 10.712787 2.6003354 10.885255 2.5782192 11.0583319 2.5608435 11.231407 2.5434678 11.40483 2.5308583 11.578599 2.5230153 11.752369 2.5151723 11.926222 2.5121077 12.10016 2.5138212 12.274097 2.5155347 12.447856 2.522024 12.621437 2.533289 12.795018 2.544554 12.968159 2.5605777 13.140859 2.5813599 13.313559 2.602142 13.485557 2.6276518 13.656855 2.6578885 13.828153 2.6881254 13.99849 2.7230442 14.167868 2.7626444 14.337247 2.8022445 14.50541 2.8464664 14.672358 2.8953102 14.839305 2.9441543 15.004786 2.9975463 15.168798 3.0554865 15.33281 3.1134268 15.495108 3.1758276 15.65569 3.242689 15.816273 3.3095504 15.974897 3.3807717 16.131566 3.4563525 16.288233 3.5319334 16.442706 3.61176 16.594986 3.695832 16.747267 3.7799044 16.897122 3.8680955 17.044554 3.960405 17.191985 4.052715 17.33677 4.149004 17.478909 4.249272 17.62105 4.34954 17.760329 4.4536368 17.896744 4.5615608 18.033162 4.6694848 18.166512 4.781074 18.296793 4.8963286 18.427079 5.0115835 18.554097 5.1303288 18.67785 5.252565 18.801608 5.374801 18.921914 5.500344 19.038767 5.6291935 19.15562 5.758043 19.268849 5.890004 19.37845 6.025078 19.48805 6.1601517 19.593859 6.298133 19.695876 6.4390227 19.79789 6.579912 19.89596 6.7234976 19.990082 6.8697779 20.084206 7.0160586 20.17424 7.164813 20.260188 7.3160426 20.346135 7.4672725 20.427863 7.620748 20.505373 7.77647 20.582882 7.9321925 20.656058 8.089926 20.7249 8.24967 20.79374 8.409415 20.85814 8.57093 20.918103 8.734213 20.978062 8.897498 21.033493 9.062305 21.084395 9.228637 21.135298 9.394968 21.181593 9.5625729 21.22328 9.73145 21.264969 9.900326 21.301989 10.070219 21.33434 10.24113 21.36669 10.412041 21.394322 10.583713 21.417235 10.756144 21.44015 10.928574 21.45831 11.101502 21.471716 11.274931 21.485125 11.4483599 21.49376 11.6220259 21.49762 11.795929 21.501482 11.969831 21.500567 12.143709 21.49487 12.317562 21.489172 12.491414 21.478705 12.664979 21.463467 12.838257 21.448229 13.011535 21.428246 13.184262 21.403515 13.35644 21.378783 13.528619 21.349343 13.699988 21.315192 13.870549 21.28104 14.041109 21.242232 14.210603 21.198761 14.37903 21.155293 14.547458 21.107232 14.714563 21.054577 14.880349 21.001923 15.046135 20.944756 15.210348 20.883074 15.372991 20.821394 15.535634 20.755293 15.69646 20.68477 15.855469 20.61425 16.014479 20.539416 16.17143 20.460267 16.326327 20.381117 16.48122 20.297776 16.633826 20.210238 16.784142 20.1227 16.934456 20.031102 17.082253 19.935439 17.227532 19.839777 17.37281 19.740199 17.515353 19.6367 17.655158 19.533205 17.794962 19.425948 17.93182 19.314927 18.065732 19.203906 18.19964 19.089293 18.3304 18.971085 18.45801 18.852877 18.58562 18.731255 18.709887 18.606217 18.83081 18.481177 18.951735 18.352911 19.069132 18.22142 19.183007 18.08993 19.29688 17.95541 19.407057 17.817862 19.513535 17.680315 19.620015 17.539948 19.722636 17.396758 19.8214 17.253569 19.920163 17.107775 20.014918 16.959378 20.105668 16.81098 20.196417 16.660204 20.283022 16.507046 20.365483 16.353888 20.447943 16.198582 20.526135 16.041125 20.600058 15.883668 20.67398 15.7243 20.743525 15.563022 20.80869 15.401742 20.873852 15.238794 20.934536 15.07418 20.990744 14.909565 21.04695 14.74353 21.098593 14.576077 21.145674 14.408625 21.192753 14.2400059 21.235198 14.070218 21.273007 13.900432 21.31082 13.729735 21.343939 13.558128 21.372366 13.386521 21.400794 13.214262 21.424487 13.041352 21.443446 12.868443 21.462405 12.695144 21.4766 12.521454 21.486033 12.347764 21.495465 12.173945 21.50012 12 21.5ZM8 12C8 12.032752 7.998395 12.065424 7.9951846 12.098018 7.991974 12.130611 7.987174 12.16297 7.980784 12.19509 7.974395 12.227212 7.966447 12.258944 7.95694 12.290285 7.9474327 12.321625 7.9364125 12.352424 7.9238789 12.382682 7.9113457 12.41294 7.8973596 12.442512 7.8819205 12.4713959 7.866482 12.500278 7.8496649 12.528336 7.831469 12.555568 7.813274 12.5828 7.7937877 12.609075 7.7730104 12.634392 7.752233 12.659709 7.730265 12.683947 7.7071068 12.707105 7.683948 12.730264 7.6597106 12.752232 7.6343929 12.773008 7.609076 12.793786 7.582802 12.813272 7.5555698 12.831468 7.528338 12.849664 7.5002806 12.866481 7.471396 12.88192 7.4425127 12.897359 7.4129416 12.911345 7.382683 12.923878 7.3524248 12.936412 7.321625 12.9474329 7.290284 12.95694 7.2589437 12.966447 7.227212 12.974396 7.19509 12.980784 7.162968 12.987174 7.1306107 12.991974 7.098017 12.995184 7.065424 12.998395 7.0327517 13 7 13 6.967249 13 6.9345767 12.998395 6.901983 12.995184 6.8693897 12.991973 6.8370316 12.987173 6.804909 12.980783 6.7727878 12.974395 6.741056 12.966446 6.7097146 12.956939 6.6783735 12.947432 6.647574 12.936412 6.6173155 12.923878 6.5870578 12.911345 6.557487 12.897359 6.5286028 12.88192 6.4997189 12.866481 6.4716608 12.849664 6.444429 12.831468 6.417198 12.813272 6.390924 12.793786 6.365607 12.773008 6.3402898 12.752232 6.3160517 12.730264 6.292893 12.707105 6.2697346 12.683947 6.2477667 12.659709 6.2269895 12.634393 6.206212 12.609076 6.186725 12.5828 6.1685297 12.555568 6.150334 12.528336 6.133517 12.500278 6.118078 12.4713959 6.102639 12.442512 6.088653 12.41294 6.0761196 12.382682 6.0635869 12.352424 6.0525667 12.321625 6.043059 12.290285 6.033552 12.258944 6.025604 12.227212 6.0192139 12.19509 6.0128247 12.16297 6.008025 12.130611 6.004815 12.098018 6.001605 12.065424 6 12.032752 6 12 6 11.96725 6.001605 11.934577 6.0048148 11.901983 6.0080249 11.86939 6.012824 11.837032 6.019213 11.80491 6.0256035 11.772788 6.0335519 11.741056 6.043059 11.709716 6.0525667 11.678373 6.0635869 11.647573 6.0761196 11.617315 6.088653 11.587058 6.102639 11.557487 6.118078 11.528603 6.133517 11.499719 6.150334 11.471661 6.1685297 11.444428 6.186725 11.417197 6.2062118 11.3909239 6.226989 11.365606 6.247766 11.340289 6.2697346 11.3160519 6.292893 11.292893 6.3160517 11.269735 6.3402898 11.247767 6.365607 11.22699 6.390924 11.206212 6.417198 11.186726 6.444429 11.1685299 6.471661 11.150334 6.499719 11.133517 6.528603 11.118077 6.557487 11.102639 6.587058 11.088654 6.617316 11.076119 6.6475746 11.063586 6.678374 11.052567 6.7097146 11.043059 6.741056 11.033552 6.7727878 11.025604 6.804909 11.019215 6.8370316 11.012826 6.8693897 11.008026 6.901983 11.004815 6.9345767 11.001606 6.967249 11.000001 7 11 7.0327517 11.000001 7.065424 11.001606 7.098017 11.004816 7.1306107 11.008027 7.162968 11.012826 7.19509 11.019215 7.227212 11.025604 7.2589437 11.033552 7.2902848 11.043059 7.321625 11.052567 7.3524248 11.063586 7.382683 11.076119 7.4129416 11.088654 7.4425127 11.102639 7.471396 11.118078 7.5002806 11.133517 7.528338 11.150334 7.5555698 11.1685299 7.582802 11.186726 7.6090767 11.206212 7.6343939 11.22699 7.6597106 11.247767 7.683948 11.269735 7.7071068 11.292893 7.730265 11.3160519 7.752233 11.340289 7.77301 11.365606 7.7937877 11.3909239 7.813274 11.417197 7.831469 11.444428 7.8496649 11.471661 7.866482 11.499719 7.881921 11.528603 7.8973596 11.557487 7.9113457 11.587058 7.9238789 11.617315 7.9364125 11.647573 7.9474327 11.678373 7.95694 11.709715 7.966447 11.741056 7.9743955 11.772788 7.9807846 11.804909 7.987174 11.837031 7.991974 11.86939 7.9951846 11.901983 7.998395 11.934577 8 11.96725 8 12ZM13 12C13.000001 12.032752 12.998395 12.065424 12.995184 12.098018 12.991973 12.130611 12.987173 12.16297 12.980783 12.19509 12.974395 12.227212 12.966446 12.258944 12.956939 12.290285 12.947432 12.321625 12.936412 12.352424 12.923878 12.382682 12.911345 12.41294 12.897359 12.442512 12.88192 12.4713959 12.866481 12.500278 12.849664 12.528336 12.831468 12.555568 12.813272 12.5828 12.793786 12.609075 12.773008 12.634392 12.752232 12.659709 12.730264 12.683947 12.707105 12.707105 12.683947 12.730264 12.659709 12.752232 12.634393 12.773008 12.609076 12.793786 12.5828 12.813272 12.555568 12.831468 12.528336 12.849664 12.500278 12.866481 12.4713959 12.88192 12.442512 12.897359 12.41294 12.911345 12.382682 12.923878 12.352424 12.936412 12.321625 12.9474329 12.290285 12.95694 12.258944 12.966447 12.227212 12.974396 12.19509 12.980784 12.16297 12.987174 12.130611 12.991974 12.098018 12.995184 12.065424 12.998395 12.032752 13 12 13 11.96725 13 11.934577 12.998395 11.901983 12.995184 11.86939 12.991973 11.837032 12.987173 11.80491 12.980783 11.772788 12.974395 11.741056 12.966446 11.709716 12.956939 11.678373 12.947432 11.647573 12.936412 11.617315 12.923878 11.587058 12.911345 11.557487 12.897359 11.528603 12.88192 11.499719 12.866481 11.471661 12.849664 11.444428 12.831468 11.417197 12.813272 11.3909239 12.793786 11.365606 12.773008 11.340289 12.752232 11.3160519 12.730264 11.292893 12.707105 11.269735 12.683947 11.247767 12.659709 11.22699 12.634393 11.206212 12.609076 11.186726 12.5828 11.1685299 12.555568 11.150334 12.528336 11.133517 12.500278 11.118077 12.4713959 11.102639 12.442512 11.088654 12.41294 11.076119 12.382682 11.063586 12.352424 11.052567 12.321625 11.043059 12.290285 11.033552 12.258944 11.025604 12.227212 11.019214 12.19509 11.012825 12.16297 11.008025 12.130611 11.004815 12.098018 11.001605 12.065424 11 12.032752 11 12 11 11.96725 11.001605 11.934577 11.004815 11.901983 11.008025 11.86939 11.012825 11.837032 11.019214 11.80491 11.025604 11.772788 11.033552 11.741056 11.043059 11.709716 11.052567 11.678373 11.063586 11.647573 11.076119 11.617315 11.088654 11.587058 11.102639 11.557487 11.118078 11.528603 11.133517 11.499719 11.150334 11.471661 11.1685299 11.444428 11.186726 11.417197 11.206212 11.3909239 11.22699 11.365606 11.247767 11.340289 11.269735 11.3160519 11.292893 11.292893 11.3160519 11.269735 11.340289 11.247767 11.365606 11.22699 11.3909239 11.206212 11.417197 11.186726 11.444428 11.1685299 11.471661 11.150334 11.499719 11.133517 11.528603 11.118077 11.557487 11.102639 11.587058 11.088654 11.617315 11.076119 11.647573 11.063586 11.678373 11.052567 11.709715 11.043059 11.741056 11.033552 11.772788 11.025604 11.804909 11.019215 11.837031 11.012826 11.86939 11.008026 11.901983 11.004815 11.934577 11.001606 11.96725 11.000001 12 11 12.032752 11.000001 12.065424 11.001606 12.098018 11.004816 12.130611 11.008027 12.16297 11.012826 12.19509 11.019215 12.227212 11.025604 12.258944 11.033552 12.290285 11.043059 12.321625 11.052567 12.352424 11.063586 12.382682 11.076119 12.41294 11.088654 12.442512 11.102639 12.4713959 11.118078 12.500278 11.133517 12.528336 11.150334 12.555568 11.1685299 12.5828 11.186726 12.609075 11.206212 12.634392 11.22699 12.659709 11.247767 12.683947 11.269735 12.707105 11.292893 12.730264 11.3160519 12.752232 11.340289 12.773008 11.365606 12.793786 11.3909239 12.813272 11.417197 12.831468 11.444428 12.849664 11.471661 12.866481 11.499719 12.88192 11.528603 12.897359 11.557487 12.911345 11.587058 12.923878 11.617315 12.936412 11.647573 12.9474329 11.678373 12.95694 11.709715 12.966447 11.741056 12.974396 11.772788 12.980784 11.804909 12.987174 11.837031 12.991974 11.86939 12.995184 11.901983 12.998395 11.934577 13.000001 11.96725 13 12ZM18 12C18 12.032752 17.998394 12.065424 17.995184 12.098018 17.991974 12.130611 17.987174 12.16297 17.980784 12.19509 17.974396 12.227212 17.966448 12.258944 17.95694 12.290285 17.947434 12.321625 17.936413 12.352424 17.923878 12.382682 17.911345 12.41294 17.89736 12.442512 17.881922 12.4713959 17.866482 12.500278 17.849665 12.528336 17.831467 12.555568 17.813273 12.5828 17.793786 12.609075 17.773009 12.634392 17.752232 12.659709 17.730265 12.683947 17.707106 12.707105 17.683947 12.730264 17.659708 12.752232 17.634392 12.773008 17.609076 12.793786 17.5828 12.813272 17.555569 12.831468 17.528336 12.849664 17.500279 12.866481 17.471396 12.88192 17.44251 12.897359 17.41294 12.911345 17.38268 12.923878 17.352423 12.936412 17.321625 12.9474329 17.290286 12.95694 17.258944 12.966447 17.227211 12.974396 17.19509 12.980784 17.162968 12.987174 17.13061 12.991974 17.098017 12.995184 17.065424 12.998395 17.032752 13 17 13 16.967249 13 16.934578 12.998395 16.901984 12.995184 16.869389 12.991973 16.83703 12.987173 16.804909 12.980783 16.772788 12.974395 16.741055 12.966446 16.709715 12.956939 16.678376 12.947432 16.647576 12.936412 16.617316 12.923878 16.587058 12.911345 16.557486 12.897359 16.528603 12.88192 16.49972 12.866481 16.47166 12.849664 16.44443 12.831468 16.417199 12.813272 16.390923 12.793786 16.365607 12.773008 16.34029 12.752232 16.316052 12.730264 16.292893 12.707105 16.269736 12.683947 16.247767 12.659709 16.22699 12.634393 16.206213 12.609076 16.186726 12.5828 16.168528 12.555568 16.150334 12.528336 16.133517 12.500278 16.118077 12.4713959 16.102639 12.442512 16.088652 12.41294 16.076119 12.382682 16.063586 12.352424 16.052567 12.321625 16.043059 12.290285 16.033553 12.258944 16.025605 12.227212 16.019213 12.19509 16.012824 12.16297 16.008025 12.130611 16.004815 12.098018 16.001605 12.065424 16 12.032752 16 12 16 11.96725 16.001605 11.934577 16.004815 11.901983 16.008025 11.86939 16.012824 11.837032 16.019213 11.80491 16.025605 11.772788 16.033553 11.741056 16.04306 11.709716 16.052567 11.678373 16.063586 11.647573 16.076119 11.617315 16.088652 11.587058 16.102639 11.557487 16.118077 11.528603 16.133517 11.499719 16.150334 11.471661 16.168528 11.444428 16.186726 11.417197 16.206213 11.3909239 16.22699 11.365606 16.247767 11.340289 16.269736 11.3160519 16.292893 11.292893 16.316052 11.269735 16.34029 11.247767 16.365607 11.22699 16.390923 11.206212 16.417199 11.186726 16.44443 11.1685299 16.47166 11.150334 16.49972 11.133517 16.528605 11.118077 16.557488 11.102639 16.587058 11.088654 16.617316 11.076119 16.647576 11.063586 16.678376 11.052567 16.709715 11.043059 16.741055 11.033552 16.772788 11.025604 16.804909 11.019215 16.83703 11.012826 16.869389 11.008026 16.901984 11.004815 16.934578 11.001606 16.967249 11.000001 17 11 17.032752 11.000001 17.065424 11.001606 17.098017 11.004816 17.13061 11.008027 17.162968 11.012826 17.19509 11.019215 17.227211 11.025604 17.258944 11.033552 17.290286 11.043059 17.321625 11.052567 17.352423 11.063586 17.38268 11.076119 17.41294 11.088654 17.44251 11.102639 17.471396 11.118078 17.500279 11.133517 17.528336 11.150334 17.555569 11.1685299 17.5828 11.186726 17.609076 11.206212 17.634392 11.22699 17.659708 11.247767 17.683947 11.269735 17.707106 11.292893 17.730265 11.3160519 17.752232 11.340289 17.773009 11.365606 17.793787 11.3909239 17.813275 11.417197 17.831469 11.444428 17.849667 11.471661 17.866484 11.499719 17.881922 11.528603 17.89736 11.557487 17.911345 11.587058 17.923878 11.617315 17.936413 11.647573 17.947434 11.678373 17.95694 11.709715 17.966448 11.741056 17.974396 11.772788 17.980784 11.804909 17.987174 11.837031 17.991974 11.86939 17.995184 11.901983 17.998394 11.934577 18 11.96725 18 12Z" fill="#737373"/>
</g>
</svg>
