<svg xmlns="http://www.w3.org/2000/svg" xmlns:xlink="http://www.w3.org/1999/xlink" version="1.1" width="1050pt" height="1050pt" viewBox="0 0 1050 1050">
<defs>
<clipPath id="clip_0">
<path transform="matrix(.24,0,0,.24,0,0)" d="M0 0H4375V4375H0Z" fill-rule="evenodd"/>
</clipPath>
<clipPath id="clip_1">
<path transform="matrix(.24,0,0,.24,0,0)" d="M0 0H4375V4375H0Z" fill-rule="evenodd"/>
</clipPath>
<clipPath id="clip_2">
<path transform="matrix(.24,0,0,.24,0,0)" d="M331.30299 331.30299H4043.803V4043.803H331.30299Z" fill-rule="evenodd"/>
</clipPath>
</defs>
<g clip-path="url(#clip_0)">
<path transform="matrix(.75,0,0,.75,0,0)" d="M0 0H1400V1400H0Z" fill="#ffffff"/>
</g>
<g clip-path="url(#clip_1)">
<path transform="matrix(.75,0,0,.75,0,0)" d="M0 0H1400V1400H0Z" fill="#ffffff"/>
</g>
<g clip-path="url(#clip_2)">
<path transform="matrix(40.498399,0,0,40.498399,39.014314,39.014314)" d="M22.8 9.362 20.246 7.354V1.5209999C20.245968 1.5041212 20.24511 1.4872847 20.243426 1.4704903 20.241742 1.4536958 20.239237 1.4370241 20.235915 1.4204753 20.232594 1.4039265 20.228472 1.38758 20.223547 1.3714358 20.218623 1.3552915 20.212918 1.3394271 20.206435 1.3238425 20.199954 1.3082579 20.192725 1.2930282 20.18475 1.2781532 20.176774 1.2632779 20.168087 1.2488289 20.158692 1.2348061 20.149298 1.2207832 20.139239 1.207254 20.128518 1.1942184 20.117796 1.1811826 20.10646 1.168703 20.094513 1.1567794 20.082568 1.144856 20.070065 1.133546 20.057009 1.1228492 20.043953 1.1121525 20.030404 1.1021204 20.016362 1.0927533 20.002322 1.0833862 19.987856 1.074729 19.972966 1.0667814 19.958075 1.0588338 19.942831 1.0516342 19.927233 1.0451825 19.911637 1.0387309 19.895762 1.0330582 19.879609 1.0281644 19.863453 1.0232706 19.847098 1.0191792 19.830542 1.0158904 19.813988 1.0126015 19.797312 1.0101309 19.780514 1.0084785 19.763716 1.0068262 19.746878 1.0059999 19.73 1.0059999H4.27C4.2531216 1.0059998 4.236283 1.006826 4.219485 1.0084784 4.2026875 1.0101308 4.186011 1.0126014 4.1694557 1.0158903 4.1529009 1.0191791 4.1365468 1.0232705 4.120393 1.0281643 4.104239 1.033058 4.0883638 1.0387308 4.0727665 1.0451824 4.0571696 1.0516341 4.0419256 1.0588336 4.0270349 1.0667812 4.012144 1.0747287 3.997678 1.0833861 3.9836369 1.0927532 3.969596 1.1021203 3.9560474 1.1121522 3.9429908 1.122849 3.9299343 1.1335458 3.9174326 1.1448557 3.9054859 1.1567792 3.8935395 1.1687027 3.882205 1.1811824 3.8714829 1.1942182 3.860761 1.2072538 3.8507026 1.2207831 3.841308 1.234806 3.831914 1.2488288 3.8232289 1.2632778 3.8152526 1.278153 3.807276 1.293028 3.8000468 1.3082578 3.7935649 1.3238424 3.787083 1.339427 3.7813795 1.3552915 3.7764545 1.3714357 3.7715295 1.3875798 3.7674065 1.4039264 3.764085 1.4204751 3.7607642 1.437024 3.7582615 1.4536957 3.7565766 1.4704902 3.7548917 1.4872846 3.7540327 1.5041212 3.754 1.5209999V7.354L1.2 9.362C1.1709251 9.38706 1.1445974 9.414733 1.1210169 9.445021 1.0974362 9.475307 1.0770629 9.507617 1.0598971 9.541948 1.0427312 9.57628 1.0291076 9.611964 1.0190263 9.649001 1.0089451 9.686038 1.0026029 9.723704 1 9.762V22.479C1.0000327 22.49586 1.0008894 22.512675 1.0025702 22.529448 1.004251 22.546223 1.0067479 22.562874 1.0100607 22.579403 1.0133735 22.595932 1.0174865 22.612259 1.0223997 22.628386 1.0273128 22.64451 1.0330025 22.660357 1.0394688 22.675927 1.0459352 22.691494 1.0531471 22.706709 1.0611047 22.721573 1.0690622 22.736433 1.0777272 22.75087 1.0870998 22.764883 1.0964723 22.778897 1.1065073 22.792416 1.117205 22.805443 1.1279028 22.818472 1.1392118 22.830948 1.1511321 22.842867 1.1630524 22.854788 1.1755271 22.866097 1.1885558 22.876795 1.2015846 22.887494 1.215105 22.897528 1.2291174 22.906899 1.2431299 22.916272 1.2575668 22.924937 1.2724283 22.932896 1.2872899 22.940854 1.3025048 22.948065 1.3180732 22.95453 1.3336417 22.960999 1.3494889 22.96669 1.3656149 22.971602 1.3817409 22.976513 1.3980686 22.980626 1.4145978 22.983939 1.4311271 22.987252 1.4477786 22.989748 1.4645524 22.991429 1.4813264 22.99311 1.4981423 22.993968 1.515 22.994H22.479C22.495858 22.993966 22.512675 22.993107 22.52945 22.991427 22.546223 22.989747 22.562874 22.98725 22.579403 22.983939 22.59593 22.980626 22.612257 22.976511 22.628382 22.971598 22.644509 22.966685 22.660355 22.960995 22.675925 22.954529 22.69149 22.948061 22.706706 22.94085 22.721568 22.932892 22.73643 22.924935 22.750868 22.91627 22.764882 22.906899 22.778893 22.897524 22.792412 22.88749 22.80544 22.876793 22.81847 22.866095 22.830945 22.854786 22.842867 22.842867 22.854786 22.830945 22.866095 22.81847 22.876793 22.805443 22.887492 22.792414 22.897526 22.778895 22.9069 22.764883 22.916272 22.750868 22.924937 22.73643 22.932894 22.72157 22.94085 22.706706 22.948061 22.69149 22.954529 22.675925 22.960995 22.660355 22.966685 22.644509 22.971598 22.628382 22.976511 22.612257 22.980626 22.59593 22.983939 22.579401 22.98725 22.562872 22.989747 22.54622 22.991429 22.529446 22.993109 22.512673 22.993966 22.495858 22.994 22.479V9.767C22.991078 9.728709 22.984654 9.691014 22.974728 9.653917 22.9648 9.616818 22.951542 9.580953 22.934954 9.546319 22.918364 9.511685 22.898726 9.478876 22.87604 9.44789 22.853352 9.416906 22.828005 9.388276 22.8 9.362ZM20.248 8.662001 21.647999 9.762001 20.693999 10.512001 20.248 10.863001V8.662001ZM4.785 7.6V2.036H19.215V11.679L12 17.357 4.785 11.679V7.6ZM3.754 8.665V10.865L3.3079999 10.514 2.3539999 9.764 3.754 8.665ZM21.963999 21.965H2.036V10.828L11.681001 18.417C11.703541 18.43484 11.727408 18.450678 11.752605 18.464512 11.777802 18.478348 11.803975 18.489987 11.831125 18.49943 11.858274 18.508875 11.886022 18.515992 11.914366 18.52078 11.942709 18.52557 11.971253 18.527964 12 18.527966 12.028746 18.527964 12.05729 18.52557 12.085634 18.52078 12.113977 18.515992 12.141724 18.508875 12.168874 18.49943 12.196024 18.489987 12.222198 18.478348 12.247395 18.464512 12.272592 18.450678 12.29646 18.43484 12.319 18.417L21.964 10.828 21.963999 21.965Z" fill="#737373"/>
<path transform="matrix(40.498399,0,0,40.498399,39.014314,39.014314)" d="M12.344 12.986C12.474 12.869 15.544 10.115 16.264 9.186 16.325308 9.105398 16.381878 9.0216 16.433712 8.934605 16.485547 8.8476099 16.532315 8.757972 16.574019 8.66569 16.615723 8.57341 16.652096 8.479074 16.68314 8.382682 16.714182 8.28629 16.739695 8.188457 16.759678 8.089181 16.779664 7.989906 16.793992 7.8898208 16.802664 7.788925 16.811337 7.6880304 16.814299 7.586968 16.81155 7.485738 16.8088 7.384508 16.800356 7.2837555 16.78622 7.18348 16.772086 7.0832045 16.752345 6.984044 16.727 6.8859999 16.698462 6.774074 16.663706 6.6641137 16.622735 6.5561187 16.581763 6.448124 16.534834 6.342783 16.481949 6.2400958 16.42906 6.1374075 16.370556 6.038028 16.306433 5.941957 16.242306 5.845886 16.172972 5.7537357 16.098427 5.665506 16.02388 5.577276 15.944597 5.49353 15.8605799 5.4142668 15.776563 5.335003 15.688346 5.260728 15.595929 5.1914417 15.50351 5.1221549 15.407482 5.0582978 15.307843 4.9998714 15.208204 4.941445 15.10559 4.888821 15 4.842 14.936989 4.817096 14.87315 4.794534 14.808484 4.774313 14.743817 4.7540929 14.678497 4.7362678 14.612524 4.7208387 14.54655 4.7054097 14.4801 4.6924178 14.413174 4.681863 14.346248 4.671308 14.279024 4.6632187 14.211505 4.657595 14.143984 4.6519715 14.076348 4.648828 14.008598 4.6481659 13.940846 4.647503 13.873162 4.6493227 13.805546 4.653625 13.737928 4.657927 13.67056 4.6647 13.603439 4.673944 13.536319 4.6831886 13.469626 4.6948788 13.403364 4.7090146 13.3371 4.7231509 13.271444 4.739695 13.206395 4.758647 13.141346 4.777599 13.077078 4.798908 13.013592 4.822575 12.950106 4.8462417 12.887571 4.8722016 12.82599 4.9004557 12.764408 4.9287087 12.703943 4.95918 12.644597 4.9918687 12.58525 5.024557 12.52718 5.059376 12.470387 5.096324 12.413595 5.1332728 12.358232 5.172251 12.304298 5.2132608 12.250365 5.25427 12.198006 5.2971999 12.147222 5.34205 12.0964369 5.3869 12.047362 5.43355 12 5.482 11.952674 5.4334948 11.903633 5.3867919 11.852877 5.3418905 11.80212 5.2969887 11.749784 5.2540099 11.69587 5.2129538 11.641956 5.1718976 11.586608 5.132874 11.529825 5.0958845 11.473043 5.0588948 11.414982 5.024038 11.355639 4.991315 11.296296 4.9585916 11.235833 4.928089 11.17425 4.8998076 11.112666 4.8715269 11.050127 4.845543 10.986634 4.8218567 10.9231419 4.79817 10.858865 4.776845 10.793806 4.7578818 10.728746 4.738918 10.663079 4.722367 10.596804 4.708228 10.530528 4.694089 10.463822 4.6824 10.3966879 4.6731626 10.329553 4.6639249 10.26217 4.6571629 10.194539 4.6528766 10.126907 4.648589 10.05921 4.6467897 9.9914469 4.6474769 9.923683 4.648164 9.856036 4.651336 9.7885069 4.6569936 9.720976 4.6626508 9.653743 4.670778 9.586809 4.681375 9.519876 4.6919724 9.453421 4.7050106 9.387446 4.72049 9.321471 4.7359697 9.256153 4.753849 9.191491 4.774128 9.126829 4.794407 9.062999 4.817031 9 4.842 8.894408 4.888821 8.791793 4.941445 8.692154 4.9998714 8.592515 5.0582978 8.496487 5.1221549 8.40407 5.1914417 8.311652 5.2607285 8.223434 5.3350036 8.139417 5.4142668 8.055399 5.49353 7.9761178 5.5772769 7.9015719 5.665507 7.827025 5.753736 7.757689 5.845886 7.6935646 5.941957 7.62944 6.038028 7.570935 6.1374075 7.5180499 6.2400958 7.465163 6.342783 7.4182345 6.448124 7.3772628 6.5561187 7.33629 6.664114 7.3015358 6.7740747 7.273 6.886 7.2476556 6.9840447 7.2279155 7.0832045 7.213779 7.18348 7.199642 7.2837555 7.1912 7.384508 7.188451 7.485738 7.185701 7.586967 7.1886627 7.6880295 7.1973359 7.788924 7.2060086 7.8898198 7.2203376 7.989905 7.240322 8.089181 7.2603065 8.188456 7.2858197 8.286289 7.3168618 8.382682 7.3479034 8.4790749 7.3842766 8.573411 7.4259808 8.665691 7.467684 8.757972 7.514453 8.8476099 7.566288 8.934604 7.6181228 9.021599 7.674693 9.105398 7.7359998 9.186 8.452999 10.115 11.525999 12.8689999 11.656 12.986 11.679402 13.007078 11.704529 13.0258469 11.7313799 13.042306 11.75823 13.058765 11.786356 13.072639 11.815758 13.083928 11.845159 13.095217 11.875342 13.103732 11.906309 13.109473 11.937276 13.115213 11.968507 13.118084 12.000001 13.118084 12.031496 13.118084 12.062726 13.115214 12.093693 13.109474 12.12466 13.103733 12.154843 13.095218 12.184244 13.083929 12.213646 13.072639 12.241773 13.058765 12.268624 13.042306 12.295474 13.0258469 12.3206 13.007078 12.344 12.986ZM8.553 8.556C8.515322 8.506013 8.480582 8.454059 8.448784 8.400139 8.4169859 8.346219 8.38833 8.290677 8.362819 8.233514 8.337308 8.176351 8.315104 8.11793 8.2962059 8.058252 8.277307 7.998576 8.261836 7.938024 8.249792 7.876596 8.237748 7.8151686 8.229209 7.753257 8.224174 7.690862 8.219137 7.6284677 8.217638 7.565988 8.219675 7.5034239 8.221712 7.4408595 8.227272 7.3786098 8.236355 7.316674 8.245439 7.2547395 8.257987 7.193515 8.274 7.133 8.293273 7.0586616 8.316677 6.985647 8.344213 6.913957 8.371748 6.842266 8.403238 6.7723577 8.4386839 6.7042305 8.47413 6.6361038 8.513305 6.5701935 8.556209 6.5065 8.599113 6.442806 8.645473 6.381735 8.695287 6.3232867 8.745102 6.264838 8.798054 6.2093865 8.854143 6.1569306 8.9102339 6.104474 8.969102 6.055349 9.03075 6.009554 9.092399 5.9637596 9.156433 5.921588 9.222854 5.8830397 9.289274 5.8444907 9.3576569 5.8098108 9.428 5.779 9.477087 5.763828 9.526697 5.7506268 9.576832 5.7393958 9.626967 5.728165 9.677469 5.7189409 9.728336 5.711722 9.779204 5.704503 9.830279 5.6993138 9.881559 5.6961538 9.932839 5.692993 9.984164 5.6918718 10.035533 5.6927888 10.086903 5.693706 10.138154 5.6966598 10.189289 5.7016489 10.240424 5.706638 10.291281 5.7136476 10.341859 5.722677 10.392437 5.7317068 10.442577 5.742728 10.492279 5.7557418 10.541981 5.768755 10.591088 5.7837188 10.639602 5.8006336 10.688115 5.8175489 10.735881 5.836361 10.7829 5.8570706 10.829918 5.877781 10.876041 5.900323 10.921269 5.924697 10.966497 5.9490716 11.010687 5.9752018 11.053839 6.003087 11.09699 6.030972 11.138967 6.060525 11.17977 6.091745 11.220574 6.122966 11.260076 6.1557557 11.298275 6.190114 11.336473 6.224473 11.373249 6.2602927 11.408602 6.297573 11.443954 6.3348538 11.477773 6.373478 11.5100569 6.4134457 11.542341 6.4534127 11.5729889 6.4945976 11.602 6.5369999 11.62627 6.5665299 11.65349 6.5930297 11.6836609 6.616499 11.713831 6.6399686 11.746213 6.6598327 11.780807 6.676091 11.8154 6.69235 11.851358 6.704606 11.88868 6.7128589 11.926003 6.7211115 11.963777 6.725158 12.002 6.725 12.04012 6.72514 12.077799 6.721129 12.115037 6.7129666 12.152274 6.704804 12.188177 6.692686 12.222745 6.6766126 12.257311 6.6605389 12.289713 6.6408946 12.319952 6.6176807 12.35019 6.5944669 12.37754 6.56824 12.401999 6.539 12.445999 6.487 13.474999 5.2720005 14.577 5.7790005 14.647345 5.809811 14.715728 5.844491 14.782148 5.88304 14.848569 5.9215886 14.912603 5.96376 14.974252 6.009554 15.0359 6.055349 15.0947699 6.104474 15.150859 6.1569306 15.206949 6.2093865 15.259901 6.264838 15.309714 6.3232867 15.3595299 6.381735 15.405889 6.4428064 15.448792 6.5065004 15.491697 6.570194 15.530871 6.636104 15.566316 6.704231 15.601762 6.772358 15.633253 6.842267 15.660789 6.913957 15.688324 6.9856479 15.711727 7.058662 15.731 7.1330006 15.746994 7.1935026 15.75953 7.2547128 15.768608 7.316631 15.777687 7.3785488 15.783251 7.440781 15.7853 7.5033276 15.78735 7.565874 15.785871 7.6283376 15.780864 7.690717 15.775857 7.7530968 15.767354 7.814996 15.755355 7.876415 15.743356 7.937834 15.727937 7.9983818 15.709099 8.058059 15.690261 8.117736 15.668122 8.176163 15.642683 8.233339 15.617245 8.290516 15.588668 8.346079 15.556953 8.400027 15.525239 8.453976 15.490588 8.505967 15.453 8.556001 14.359042 9.73241 13.208042 10.850077 12 11.909 10.793462 10.850482 9.644462 9.732816 8.553 8.556Z" fill="#737373"/>
</g>
</svg>
