<?xml version="1.0" standalone="no"?>
<!DOCTYPE svg PUBLIC "-//W3C//DTD SVG 20010904//EN"
 "http://www.w3.org/TR/2001/REC-SVG-20010904/DTD/svg10.dtd">
<svg version="1.0" xmlns="http://www.w3.org/2000/svg"
 width="1400.000000pt" height="1400.000000pt" viewBox="0 0 1400.000000 1400.000000"
 preserveAspectRatio="xMidYMid meet">

<g transform="translate(0.000000,1400.000000) scale(0.100000,-0.100000)"
fill="#000000" stroke="none">
<path d="M10156 13430 c-152 -24 -314 -87 -435 -169 -95 -65 -185 -155 -275
-276 -86 -114 -790 -1070 -1846 -2505 -181 -246 -223 -303 -1005 -1365 -259
-352 -774 -1052 -1145 -1555 -370 -503 -728 -989 -795 -1080 -216 -292 -270
-391 -320 -586 -49 -191 -49 -215 0 -975 25 -382 50 -721 56 -754 18 -102 48
-191 99 -292 149 -296 430 -497 768 -549 95 -14 129 -15 220 -6 106 11 1303
243 1456 282 186 48 354 135 503 261 97 83 130 123 388 474 109 149 253 344
320 435 67 91 209 284 316 430 108 146 404 549 659 895 255 347 588 799 740
1005 151 206 350 476 440 599 443 600 531 720 660 896 187 254 356 484 1005
1365 302 410 574 781 604 825 68 101 115 204 149 325 24 85 27 112 26 255 0
140 -3 172 -26 255 -50 182 -141 343 -268 468 -36 35 -164 137 -285 227 -121
89 -438 323 -705 520 -569 421 -618 456 -728 507 -165 78 -405 115 -576 88z
m234 -905 c19 -13 125 -90 235 -172 111 -81 429 -316 707 -520 455 -336 507
-377 522 -413 21 -54 20 -78 -7 -125 -20 -34 -413 -573 -437 -599 -5 -5 -81
45 -172 111 -90 66 -311 229 -493 363 -181 134 -480 353 -662 487 -183 135
-333 247 -333 249 0 6 418 574 444 603 50 56 129 62 196 16z m-933 -1503 c126
-93 487 -359 803 -592 316 -233 585 -431 597 -440 22 -17 21 -18 -574 -826
-951 -1292 -1031 -1400 -1608 -2184 -571 -775 -592 -804 -821 -1115 -78 -104
-237 -320 -354 -480 -595 -809 -619 -841 -662 -871 -24 -17 -63 -38 -88 -48
-60 -21 -1304 -268 -1353 -268 -21 1 -52 9 -70 19 -66 39 -63 22 -107 697 -22
340 -40 645 -40 679 0 41 8 81 23 117 15 35 201 297 522 734 649 880 829 1125
945 1282 52 71 131 179 175 239 70 95 417 566 1230 1670 105 143 375 510 600
815 557 757 545 740 550 740 2 0 107 -76 232 -168z"/>
<path d="M6665 13270 c-1168 -64 -2307 -447 -3269 -1097 -724 -490 -1340
-1122 -1807 -1854 -607 -951 -946 -2003 -1009 -3129 -70 -1267 258 -2579 918
-3665 557 -916 1302 -1654 2227 -2205 180 -107 560 -302 740 -378 538 -229
1088 -381 1647 -457 947 -127 1846 -57 2745 216 746 226 1407 564 2043 1045
319 241 708 607 965 909 1040 1221 1588 2744 1552 4315 -4 146 -11 321 -17
390 -36 438 -123 902 -246 1319 -58 197 -143 441 -178 509 -84 167 -273 262
-457 233 -189 -31 -338 -182 -369 -375 -13 -84 -2 -153 46 -279 52 -135 126
-380 174 -567 177 -708 215 -1489 104 -2195 -158 -1015 -590 -1958 -1262
-2755 -142 -168 -487 -510 -647 -642 -752 -620 -1575 -1012 -2510 -1197 -363
-72 -551 -91 -946 -98 -520 -9 -910 30 -1370 137 -1480 343 -2772 1300 -3539
2620 -364 627 -610 1360 -704 2100 -59 461 -53 1000 15 1475 178 1239 791
2411 1706 3261 937 870 2123 1384 3406 1475 108 8 271 9 501 4 538 -12 533
-12 599 14 156 61 261 206 274 377 16 212 -121 408 -322 458 -130 33 -700 53
-1010 36z"/>
</g>
</svg>
