<svg version="1.1" id="Layer_1" xmlns="http://www.w3.org/2000/svg" xmlns:xlink="http://www.w3.org/1999/xlink" x="0px" y="0px"
	 width="100%" viewBox="0 0 800 250" enable-background="new 0 0 800 250" xml:space="preserve">
<path fill="#FF0000" opacity="1.000000" stroke="none" 
	d="
M561.000000,251.000000 
	C374.044373,251.000000 187.588745,251.000000 1.066564,251.000000 
	C1.066564,167.730911 1.066564,84.461769 1.066564,1.096307 
	C267.666656,1.096307 534.333313,1.096307 800.971313,1.096307 
	C800.971313,84.411278 800.971313,167.705643 800.971313,251.000000 
	C721.128357,251.000000 641.314209,251.000000 561.000000,251.000000 
M604.000000,166.364532 
	C604.000000,156.620667 604.000000,146.876816 604.000000,137.356384 
	C615.091553,137.356384 625.487122,137.356384 636.296753,137.356384 
	C636.296753,148.777832 636.296753,159.845993 636.296753,170.797714 
	C640.342224,170.797714 643.959534,170.797714 647.783325,170.797714 
	C647.783325,151.873917 647.783325,133.152206 647.783325,113.997932 
	C644.199951,113.997932 640.795837,113.997932 636.971069,113.997932 
	C636.971069,106.505898 636.971069,99.430893 636.971069,91.942322 
	C633.145142,91.942322 629.731995,91.942322 625.912964,91.942322 
	C625.912964,88.115555 625.912964,84.702736 625.912964,81.274200 
	C621.741699,81.274200 618.007874,81.274200 613.852539,81.274200 
	C613.852539,84.948631 613.852539,88.358871 613.852539,92.178772 
	C610.023193,92.178772 606.617126,92.178772 602.801331,92.178772 
	C602.801331,99.679115 602.801331,106.752975 602.801331,114.237282 
	C598.964783,114.237282 595.560852,114.237282 592.331360,114.237282 
	C592.331360,133.393677 592.331360,152.116165 592.331360,170.999725 
	C595.314087,170.999725 597.987427,170.790359 600.613098,171.054398 
	C603.678589,171.362640 604.382935,169.946091 604.000000,166.364532 
M385.704773,191.999252 
	C392.449097,191.999252 399.193451,191.999252 406.170349,191.999252 
	C406.170349,187.963455 406.170349,184.676788 406.170349,180.971176 
	C409.819611,180.971176 413.235962,180.971176 416.762573,180.971176 
	C416.762573,158.478210 416.762573,136.419525 416.762573,114.254654 
	C412.789520,114.254654 409.057922,114.254654 404.903076,114.254654 
	C404.903076,129.238968 404.903076,143.974808 404.903076,158.720581 
	C401.399048,158.720581 398.330597,158.720581 394.841156,158.720581 
	C394.841156,155.039474 394.841156,151.628571 394.841156,147.805756 
	C391.007751,147.805756 387.601898,147.805756 383.783936,147.805756 
	C383.783936,136.304810 383.783936,125.235291 383.783936,114.345444 
	C379.610443,114.345444 375.877167,114.345444 372.353638,114.345444 
	C372.353638,125.761040 372.353638,136.828720 372.353638,148.314178 
	C376.115692,148.314178 379.522552,148.314178 383.166321,148.314178 
	C383.166321,152.029709 383.166321,155.316452 383.166321,159.021835 
	C386.815704,159.021835 390.230988,159.021835 394.054016,159.021835 
	C394.054016,162.849243 394.054016,166.264313 394.054016,170.086243 
	C397.883759,170.086243 401.298065,170.086243 404.722412,170.086243 
	C404.722412,173.924194 404.722412,177.322845 404.722412,180.708618 
	C397.706726,180.708618 390.972870,180.708618 383.814575,180.708618 
	C383.814575,177.015076 383.814575,173.606659 383.814575,170.324219 
	C379.640808,170.324219 375.905731,170.324219 372.341003,170.324219 
	C372.341003,174.057541 372.341003,177.459839 372.341003,181.281448 
	C376.090240,181.281448 379.495911,181.281448 383.000000,181.281448 
	C383.000000,183.707199 382.780334,185.732986 383.071381,187.682541 
	C383.293335,189.169235 384.162781,190.559280 385.704773,191.999252 
M91.498680,81.000000 
	C82.403702,81.000000 73.308723,81.000000 64.319092,81.000000 
	C64.319092,111.348114 64.319092,141.079361 64.319092,170.658997 
	C68.381447,170.658997 72.114601,170.658997 76.276001,170.658997 
	C76.276001,159.250443 76.276001,148.179016 76.276001,136.687683 
	C87.453407,136.687683 98.192398,136.687683 108.783890,136.687683 
	C108.783890,132.963425 108.783890,129.678101 108.783890,125.966705 
	C97.838005,125.966705 87.098404,125.966705 76.254692,125.966705 
	C76.254692,114.461021 76.254692,103.396225 76.254692,91.895935 
	C87.242096,91.895935 97.982803,91.895935 108.709389,91.895935 
	C108.709389,88.051590 108.709389,84.651711 108.709389,81.000000 
	C103.113441,81.000000 97.805740,81.000000 91.498680,81.000000 
M547.991577,93.703949 
	C547.991577,96.996742 547.991577,100.289528 547.991577,103.779503 
	C552.137878,103.779503 555.872375,103.779503 559.760742,103.779503 
	C559.760742,99.821404 559.760742,96.086311 559.760742,91.919975 
	C556.124023,91.919975 552.708313,91.919975 548.882568,91.919975 
	C548.882568,88.087044 548.882568,84.674675 548.882568,81.294205 
	C541.039673,81.294205 533.636353,81.294205 525.807495,81.294205 
	C525.807495,84.992813 525.807495,88.402626 525.807495,92.229675 
	C521.970276,92.229675 518.564819,92.229675 515.345825,92.229675 
	C515.345825,114.737259 515.345825,136.805435 515.345825,159.299805 
	C519.100830,159.299805 522.509277,159.299805 526.155884,159.299805 
	C526.155884,163.017136 526.155884,166.303391 526.155884,169.772339 
	C533.816467,169.772339 541.218384,169.772339 549.054199,169.772339 
	C549.054199,166.151840 549.054199,162.735199 549.054199,158.910217 
	C552.887024,158.910217 556.302490,158.910217 559.719360,158.910217 
	C559.719360,155.067307 559.719360,151.665771 559.719360,148.298660 
	C555.695312,148.298660 551.959045,148.298660 547.796875,148.298660 
	C547.796875,151.999557 547.796875,155.406219 547.796875,158.660797 
	C540.620422,158.660797 533.885376,158.660797 527.356567,158.660797 
	C527.356567,136.254730 527.356567,114.189232 527.356567,91.630852 
	C534.460632,92.016869 541.187866,92.382408 547.991577,93.703949 
M688.565979,81.000000 
	C686.130737,81.000000 683.695557,81.000000 681.294922,81.000000 
	C681.294922,84.964500 681.294922,88.362030 681.294922,92.176071 
	C688.649658,92.176071 695.717529,92.176071 703.163818,92.176071 
	C703.163818,118.315498 703.163818,144.025116 703.163818,169.703796 
	C707.300232,169.703796 711.031250,169.703796 715.149231,169.703796 
	C715.149231,143.702393 715.149231,117.994568 715.149231,91.864258 
	C722.611816,91.864258 729.679138,91.864258 736.702637,91.864258 
	C736.702637,88.032021 736.702637,84.634872 736.702637,81.000000 
	C720.787170,81.000000 705.167664,81.000000 688.565979,81.000000 
M147.450302,159.000015 
	C148.888916,159.078506 150.327530,159.157013 152.180847,159.258133 
	C152.180847,162.977615 152.180847,166.386002 152.180847,169.671173 
	C163.688629,169.671173 174.755936,169.671173 185.654877,169.671173 
	C185.654877,150.937790 185.654877,132.534927 185.654877,114.368538 
	C181.568237,114.368538 177.832977,114.368538 173.845764,114.368538 
	C173.845764,129.351456 173.845764,143.966827 173.845764,158.769180 
	C166.845795,158.769180 160.113098,158.769180 152.941437,158.769180 
	C152.941437,143.806244 152.941437,129.067276 152.941437,114.269165 
	C148.762894,114.269165 145.029297,114.269165 141.286713,114.269165 
	C141.286713,129.275848 141.286713,144.011642 141.286713,159.000000 
	C143.209671,159.000000 144.853912,159.000000 147.450302,159.000015 
M253.659805,169.999130 
	C256.740753,169.999130 259.821716,169.999130 262.792603,169.999130 
	C262.792603,154.651245 262.792603,140.035767 262.792603,124.988159 
	C259.187988,124.988159 255.779221,124.988159 251.949692,124.988159 
	C251.949692,121.488869 251.949692,118.414970 251.949692,115.264114 
	C240.447083,115.264114 229.379501,115.264114 218.281708,115.264114 
	C218.281708,133.930618 218.281708,152.331696 218.281708,170.697113 
	C222.304779,170.697113 226.039200,170.697113 230.203201,170.697113 
	C230.203201,155.660873 230.203201,140.922943 230.203201,126.343254 
	C237.386612,126.343254 244.123047,126.343254 251.000015,126.343254 
	C251.000015,139.674545 250.946365,152.663589 251.074982,165.650818 
	C251.089371,167.102966 252.137985,168.544876 253.659805,169.999130 
M306.249146,170.914749 
	C306.499451,169.173813 306.958618,167.433853 306.966736,165.691788 
	C307.027771,152.580185 307.000000,139.468185 307.000000,126.260666 
	C314.215912,126.260666 320.948486,126.260666 328.117493,126.260666 
	C328.117493,140.921417 328.117493,155.327774 328.117493,169.700760 
	C332.297760,169.700760 336.032104,169.700760 339.684753,169.700760 
	C339.684753,154.663208 339.684753,139.926834 339.684753,124.765312 
	C335.958923,124.765312 332.548157,124.765312 328.723328,124.765312 
	C328.723328,121.262779 328.723328,118.188446 328.723328,115.374344 
	C317.216766,115.374344 306.148651,115.374344 295.215881,115.374344 
	C295.215881,134.031677 295.215881,152.314102 295.215881,170.991531 
	C298.709503,170.991531 302.001068,170.991531 306.249146,170.914749 
M466.499573,137.000000 
	C471.921478,137.000000 477.343414,137.000000 482.696167,137.000000 
	C482.696167,133.014603 482.696167,129.619522 482.696167,126.291512 
	C471.339996,126.291512 460.290009,126.291512 449.303589,126.291512 
	C449.303589,129.986710 449.303589,133.382339 449.303589,137.000000 
	C454.903687,137.000000 460.202179,137.000000 466.499573,137.000000 
z"/>
<path fill="#FFFFFF" opacity="1.000000" stroke="none" 
	d="
M604.000000,166.847946 
	C604.382935,169.946091 603.678589,171.362640 600.613098,171.054398 
	C597.987427,170.790359 595.314087,170.999725 592.331360,170.999725 
	C592.331360,152.116165 592.331360,133.393677 592.331360,114.237282 
	C595.560852,114.237282 598.964783,114.237282 602.801331,114.237282 
	C602.801331,106.752975 602.801331,99.679115 602.801331,92.178772 
	C606.617126,92.178772 610.023193,92.178772 613.852539,92.178772 
	C613.852539,88.358871 613.852539,84.948631 613.852539,81.274200 
	C618.007874,81.274200 621.741699,81.274200 625.912964,81.274200 
	C625.912964,84.702736 625.912964,88.115555 625.912964,91.942322 
	C629.731995,91.942322 633.145142,91.942322 636.971069,91.942322 
	C636.971069,99.430893 636.971069,106.505898 636.971069,113.997932 
	C640.795837,113.997932 644.199951,113.997932 647.783325,113.997932 
	C647.783325,133.152206 647.783325,151.873917 647.783325,170.797714 
	C643.959534,170.797714 640.342224,170.797714 636.296753,170.797714 
	C636.296753,159.845993 636.296753,148.777832 636.296753,137.356384 
	C625.487122,137.356384 615.091553,137.356384 604.000000,137.356384 
	C604.000000,146.876816 604.000000,156.620667 604.000000,166.847946 
M625.000000,100.540894 
	C625.000000,97.773659 625.000000,95.006416 625.000000,92.291321 
	C621.368591,92.291321 618.307678,92.291321 614.847717,92.291321 
	C614.847717,99.967712 614.847717,107.359848 614.847717,115.158592 
	C611.037720,115.158592 607.634338,115.158592 604.298462,115.158592 
	C604.298462,118.980942 604.298462,122.374222 604.298462,125.720520 
	C614.977539,125.720520 625.355774,125.720520 635.714355,125.720520 
	C635.714355,122.039642 635.714355,118.644753 635.714355,114.837067 
	C632.036194,114.837067 628.635132,114.837067 625.000000,114.837067 
	C625.000000,110.120125 625.000000,105.824203 625.000000,100.540894 
z"/>
<path fill="#FFFFFF" opacity="1.000000" stroke="none" 
	d="
M385.224487,191.995789 
	C384.162781,190.559280 383.293335,189.169235 383.071381,187.682541 
	C382.780334,185.732986 383.000000,183.707199 383.000000,181.281448 
	C379.495911,181.281448 376.090240,181.281448 372.341003,181.281448 
	C372.341003,177.459839 372.341003,174.057541 372.341003,170.324219 
	C375.905731,170.324219 379.640808,170.324219 383.814575,170.324219 
	C383.814575,173.606659 383.814575,177.015076 383.814575,180.708618 
	C390.972870,180.708618 397.706726,180.708618 404.722412,180.708618 
	C404.722412,177.322845 404.722412,173.924194 404.722412,170.086243 
	C401.298065,170.086243 397.883759,170.086243 394.054016,170.086243 
	C394.054016,166.264313 394.054016,162.849243 394.054016,159.021835 
	C390.230988,159.021835 386.815704,159.021835 383.166321,159.021835 
	C383.166321,155.316452 383.166321,152.029709 383.166321,148.314178 
	C379.522552,148.314178 376.115692,148.314178 372.353638,148.314178 
	C372.353638,136.828720 372.353638,125.761040 372.353638,114.345444 
	C375.877167,114.345444 379.610443,114.345444 383.783936,114.345444 
	C383.783936,125.235291 383.783936,136.304810 383.783936,147.805756 
	C387.601898,147.805756 391.007751,147.805756 394.841156,147.805756 
	C394.841156,151.628571 394.841156,155.039474 394.841156,158.720581 
	C398.330597,158.720581 401.399048,158.720581 404.903076,158.720581 
	C404.903076,143.974808 404.903076,129.238968 404.903076,114.254654 
	C409.057922,114.254654 412.789520,114.254654 416.762573,114.254654 
	C416.762573,136.419525 416.762573,158.478210 416.762573,180.971176 
	C413.235962,180.971176 409.819611,180.971176 406.170349,180.971176 
	C406.170349,184.676788 406.170349,187.963455 406.170349,191.999252 
	C399.193451,191.999252 392.449097,191.999252 385.224487,191.995789 
z"/>
<path fill="#FFFFFF" opacity="1.000000" stroke="none" 
	d="
M91.998352,81.000000 
	C97.805740,81.000000 103.113441,81.000000 108.709389,81.000000 
	C108.709389,84.651711 108.709389,88.051590 108.709389,91.895935 
	C97.982803,91.895935 87.242096,91.895935 76.254692,91.895935 
	C76.254692,103.396225 76.254692,114.461021 76.254692,125.966705 
	C87.098404,125.966705 97.838005,125.966705 108.783890,125.966705 
	C108.783890,129.678101 108.783890,132.963425 108.783890,136.687683 
	C98.192398,136.687683 87.453407,136.687683 76.276001,136.687683 
	C76.276001,148.179016 76.276001,159.250443 76.276001,170.658997 
	C72.114601,170.658997 68.381447,170.658997 64.319092,170.658997 
	C64.319092,141.079361 64.319092,111.348114 64.319092,81.000000 
	C73.308723,81.000000 82.403702,81.000000 91.998352,81.000000 
z"/>
<path fill="#FFFFFF" opacity="1.000000" stroke="none" 
	d="
M547.953308,93.225952 
	C541.187866,92.382408 534.460632,92.016869 527.356567,91.630852 
	C527.356567,114.189232 527.356567,136.254730 527.356567,158.660797 
	C533.885376,158.660797 540.620422,158.660797 547.796875,158.660797 
	C547.796875,155.406219 547.796875,151.999557 547.796875,148.298660 
	C551.959045,148.298660 555.695312,148.298660 559.719360,148.298660 
	C559.719360,151.665771 559.719360,155.067307 559.719360,158.910217 
	C556.302490,158.910217 552.887024,158.910217 549.054199,158.910217 
	C549.054199,162.735199 549.054199,166.151840 549.054199,169.772339 
	C541.218384,169.772339 533.816467,169.772339 526.155884,169.772339 
	C526.155884,166.303391 526.155884,163.017136 526.155884,159.299805 
	C522.509277,159.299805 519.100830,159.299805 515.345825,159.299805 
	C515.345825,136.805435 515.345825,114.737259 515.345825,92.229675 
	C518.564819,92.229675 521.970276,92.229675 525.807495,92.229675 
	C525.807495,88.402626 525.807495,84.992813 525.807495,81.294205 
	C533.636353,81.294205 541.039673,81.294205 548.882568,81.294205 
	C548.882568,84.674675 548.882568,88.087044 548.882568,91.919975 
	C552.708313,91.919975 556.124023,91.919975 559.760742,91.919975 
	C559.760742,96.086311 559.760742,99.821404 559.760742,103.779503 
	C555.872375,103.779503 552.137878,103.779503 547.991577,103.779503 
	C547.991577,100.289528 547.991577,96.996742 547.953308,93.225952 
z"/>
<path fill="#FFFFFF" opacity="1.000000" stroke="none" 
	d="
M689.057129,81.000000 
	C705.167664,81.000000 720.787170,81.000000 736.702637,81.000000 
	C736.702637,84.634872 736.702637,88.032021 736.702637,91.864258 
	C729.679138,91.864258 722.611816,91.864258 715.149231,91.864258 
	C715.149231,117.994568 715.149231,143.702393 715.149231,169.703796 
	C711.031250,169.703796 707.300232,169.703796 703.163818,169.703796 
	C703.163818,144.025116 703.163818,118.315498 703.163818,92.176071 
	C695.717529,92.176071 688.649658,92.176071 681.294922,92.176071 
	C681.294922,88.362030 681.294922,84.964500 681.294922,81.000000 
	C683.695557,81.000000 686.130737,81.000000 689.057129,81.000000 
z"/>
<path fill="#FFFFFF" opacity="1.000000" stroke="none" 
	d="
M146.974228,159.000000 
	C144.853912,159.000000 143.209671,159.000000 141.286713,159.000000 
	C141.286713,144.011642 141.286713,129.275848 141.286713,114.269165 
	C145.029297,114.269165 148.762894,114.269165 152.941437,114.269165 
	C152.941437,129.067276 152.941437,143.806244 152.941437,158.769180 
	C160.113098,158.769180 166.845795,158.769180 173.845764,158.769180 
	C173.845764,143.966827 173.845764,129.351456 173.845764,114.368538 
	C177.832977,114.368538 181.568237,114.368538 185.654877,114.368538 
	C185.654877,132.534927 185.654877,150.937790 185.654877,169.671173 
	C174.755936,169.671173 163.688629,169.671173 152.180847,169.671173 
	C152.180847,166.386002 152.180847,162.977615 152.180847,159.258133 
	C150.327530,159.157013 148.888916,159.078506 146.974228,159.000000 
z"/>
<path fill="#FFFFFF" opacity="1.000000" stroke="none" 
	d="
M253.183380,169.995331 
	C252.137985,168.544876 251.089371,167.102966 251.074982,165.650818 
	C250.946365,152.663589 251.000015,139.674545 251.000015,126.343254 
	C244.123047,126.343254 237.386612,126.343254 230.203201,126.343254 
	C230.203201,140.922943 230.203201,155.660873 230.203201,170.697113 
	C226.039200,170.697113 222.304779,170.697113 218.281708,170.697113 
	C218.281708,152.331696 218.281708,133.930618 218.281708,115.264114 
	C229.379501,115.264114 240.447083,115.264114 251.949692,115.264114 
	C251.949692,118.414970 251.949692,121.488869 251.949692,124.988159 
	C255.779221,124.988159 259.187988,124.988159 262.792603,124.988159 
	C262.792603,140.035767 262.792603,154.651245 262.792603,169.999130 
	C259.821716,169.999130 256.740753,169.999130 253.183380,169.995331 
z"/>
<path fill="#FFFFFF" opacity="1.000000" stroke="none" 
	d="
M305.770874,170.953140 
	C302.001068,170.991531 298.709503,170.991531 295.215881,170.991531 
	C295.215881,152.314102 295.215881,134.031677 295.215881,115.374344 
	C306.148651,115.374344 317.216766,115.374344 328.723328,115.374344 
	C328.723328,118.188446 328.723328,121.262779 328.723328,124.765312 
	C332.548157,124.765312 335.958923,124.765312 339.684753,124.765312 
	C339.684753,139.926834 339.684753,154.663208 339.684753,169.700760 
	C336.032104,169.700760 332.297760,169.700760 328.117493,169.700760 
	C328.117493,155.327774 328.117493,140.921417 328.117493,126.260666 
	C320.948486,126.260666 314.215912,126.260666 307.000000,126.260666 
	C307.000000,139.468185 307.027771,152.580185 306.966736,165.691788 
	C306.958618,167.433853 306.499451,169.173813 305.770874,170.953140 
z"/>
<path fill="#FFFFFF" opacity="1.000000" stroke="none" 
	d="
M466.000122,137.000000 
	C460.202179,137.000000 454.903687,137.000000 449.303589,137.000000 
	C449.303589,133.382339 449.303589,129.986710 449.303589,126.291512 
	C460.290009,126.291512 471.339996,126.291512 482.696167,126.291512 
	C482.696167,129.619522 482.696167,133.014603 482.696167,137.000000 
	C477.343414,137.000000 471.921478,137.000000 466.000122,137.000000 
z"/>
<path fill="#FF0000" opacity="1.000000" stroke="none" 
	d="
M625.000000,101.034584 
	C625.000000,105.824203 625.000000,110.120125 625.000000,114.837067 
	C628.635132,114.837067 632.036194,114.837067 635.714355,114.837067 
	C635.714355,118.644753 635.714355,122.039642 635.714355,125.720520 
	C625.355774,125.720520 614.977539,125.720520 604.298462,125.720520 
	C604.298462,122.374222 604.298462,118.980942 604.298462,115.158592 
	C607.634338,115.158592 611.037720,115.158592 614.847717,115.158592 
	C614.847717,107.359848 614.847717,99.967712 614.847717,92.291321 
	C618.307678,92.291321 621.368591,92.291321 625.000000,92.291321 
	C625.000000,95.006416 625.000000,97.773659 625.000000,101.034584 
z"/>
</svg>