<?xml version="1.0" standalone="no"?>
<!DOCTYPE svg PUBLIC "-//W3C//DTD SVG 20010904//EN"
 "http://www.w3.org/TR/2001/REC-SVG-20010904/DTD/svg10.dtd">
<svg version="1.0" xmlns="http://www.w3.org/2000/svg"
 width="735.000000pt" height="1253.000000pt" viewBox="0 0 735.000000 1253.000000"
 preserveAspectRatio="xMidYMid meet">

<g transform="translate(0.000000,1253.000000) scale(0.100000,-0.100000)"
fill="#000000" stroke="none">
<path d="M4840 3226 c-99 -28 -199 -102 -262 -194 -36 -52 -27 -71 11 -22 64
84 108 123 183 161 97 49 162 60 184 33 14 -18 14 -18 12 6 -3 22 -8 25 -43
27 -22 1 -60 -4 -85 -11z"/>
<path d="M5017 3050 c-109 -14 -86 -28 45 -26 139 1 166 -7 308 -94 75 -46 97
-77 71 -103 -16 -16 -13 -37 4 -37 24 0 55 37 55 66 0 54 -133 140 -279 180
-89 25 -108 26 -204 14z"/>
<path d="M4376 2950 c-53 -21 -96 -58 -157 -133 -36 -45 -49 -77 -31 -77 4 0
34 34 67 76 66 84 104 108 183 119 33 4 52 11 49 19 -6 18 -59 17 -111 -4z"/>
<path d="M5180 2891 c0 -5 15 -16 34 -25 18 -8 57 -32 87 -53 121 -83 169
-134 169 -181 0 -11 23 -67 51 -125 57 -121 79 -219 59 -268 -7 -16 -15 -29
-19 -29 -4 0 -12 46 -19 101 -12 99 -30 148 -67 179 -27 22 -28 3 -2 -42 44
-75 59 -220 32 -305 -16 -51 70 -2 100 58 32 60 15 191 -38 294 -54 106 -65
133 -71 165 -4 25 -22 51 -59 87 -95 93 -257 184 -257 144z"/>
<path d="M4400 2841 c-51 -16 -87 -41 -145 -101 -113 -117 -149 -165 -169
-224 -18 -56 -22 -196 -6 -227 19 -34 29 -20 23 29 -7 64 25 132 113 234 37
44 64 85 62 94 -3 17 -53 -29 -132 -121 -20 -24 -25 -26 -26 -12 0 27 48 91
142 188 68 70 93 89 136 103 30 10 52 24 52 32 0 15 -12 16 -50 5z"/>
<path d="M4382 2663 c-21 -8 -109 -148 -132 -211 -17 -44 -21 -72 -18 -127 4
-67 3 -71 -28 -107 -91 -102 -22 -210 142 -225 85 -7 76 8 -16 26 -36 7 -77
20 -92 29 -47 27 -59 88 -26 130 19 23 82 14 126 -18 43 -31 62 -37 62 -20 0
16 -87 70 -114 70 -59 0 -4 48 64 57 41 6 41 7 39 42 -5 62 12 144 42 204 34
67 34 67 14 67 -28 0 -71 -85 -90 -179 -16 -75 -22 -91 -42 -100 -34 -15 -40
-14 -46 11 -15 57 30 180 103 277 49 67 53 91 12 74z"/>
<path d="M4534 2628 c-39 -46 -68 -120 -88 -216 -22 -110 -21 -164 3 -193 29
-35 43 -15 33 43 -17 91 18 246 75 331 19 28 36 54 39 59 3 4 -4 8 -15 8 -10
0 -32 -15 -47 -32z"/>
<path d="M5088 2599 c-6 -71 -40 -153 -107 -264 -23 -38 -39 -75 -36 -83 9
-24 39 11 91 107 78 144 102 242 70 286 -11 16 -14 11 -18 -46z"/>
<path d="M4589 2582 c-41 -60 -61 -112 -72 -187 -11 -75 -4 -129 16 -122 7 2
15 37 20 88 6 69 15 99 47 164 22 44 40 83 40 88 0 19 -28 3 -51 -31z"/>
<path d="M4757 2560 c-52 -46 -74 -97 -80 -182 -4 -50 -9 -61 -40 -90 -45 -43
-63 -102 -51 -166 8 -44 13 -49 64 -75 46 -24 63 -28 103 -23 67 7 108 33 132
83 20 42 20 42 77 43 54 0 57 -1 63 -29 11 -52 70 -91 137 -91 68 0 115 17
139 51 12 17 42 51 68 77 51 51 67 92 77 191 6 51 4 61 -9 61 -10 0 -17 -14
-22 -42 -9 -60 -36 -151 -47 -165 -13 -17 -28 -17 -28 0 0 7 -9 31 -20 52 -19
38 -20 44 -6 100 22 91 30 171 17 179 -6 4 -11 4 -11 1 0 -21 -42 -211 -48
-217 -4 -4 -21 -4 -37 0 -17 5 -48 5 -70 1 -22 -4 -41 -6 -43 -5 -1 2 16 41
37 87 40 86 55 159 34 166 -6 2 -15 -15 -22 -45 -5 -27 -42 -112 -82 -191
l-71 -142 -47 2 c-63 3 -68 6 -75 43 -7 39 -37 68 -88 89 -35 15 -37 18 -31
49 9 51 41 107 80 143 52 47 38 65 -17 23 -54 -41 -87 -97 -96 -160 -5 -33
-11 -48 -22 -48 -12 0 -14 10 -9 60 8 70 21 99 71 155 60 67 43 77 -27 15z"/>
<path d="M5422 2087 c-8 -9 -5 -25 9 -57 39 -88 9 -133 -128 -190 -116 -49
-204 -69 -330 -77 -81 -4 -113 -10 -113 -19 0 -21 52 -25 133 -9 43 8 95 15
114 15 41 0 190 48 270 87 76 37 103 72 103 131 0 40 -30 132 -43 132 -3 0 -9
-6 -15 -13z"/>
<path d="M4440 1945 c0 -27 54 -95 76 -95 20 0 17 10 -10 31 -14 11 -30 35
-36 54 -13 41 -30 46 -30 10z"/>
<path d="M4464 1764 c-54 -18 -74 -46 -74 -103 0 -39 -7 -58 -39 -103 -21 -30
-57 -100 -79 -154 -23 -54 -63 -148 -91 -209 -27 -60 -70 -171 -94 -245 -25
-74 -66 -193 -92 -265 -40 -114 -131 -432 -170 -595 -8 -30 -17 -63 -20 -72
-7 -17 28 -18 649 -18 l656 0 0 28 c0 15 -7 52 -15 82 -8 30 -21 132 -29 225
-9 103 -25 212 -40 275 -14 58 -33 170 -41 249 -9 79 -17 147 -20 151 -3 4
-11 110 -20 235 -13 200 -13 230 0 255 8 16 15 49 15 75 0 55 -21 79 -82 95
-24 6 -104 29 -178 52 -188 57 -192 57 -236 42z"/>
</g>
</svg>
