<svg xmlns="http://www.w3.org/2000/svg" xmlns:xlink="http://www.w3.org/1999/xlink" version="1.1" width="1050pt" height="1050pt" viewBox="0 0 1050 1050">
<defs>
<clipPath id="clip_0">
<path transform="matrix(.24,0,0,.24,0,0)" d="M0 0H4375V4375H0Z" fill-rule="evenodd"/>
</clipPath>
<clipPath id="clip_1">
<path transform="matrix(.24,0,0,.24,0,0)" d="M0 0H4375V4375H0Z" fill-rule="evenodd"/>
</clipPath>
<clipPath id="clip_2">
<path transform="matrix(.24,0,0,.24,0,0)" d="M192.26696 192.26696H4182.892V4182.892H192.26696Z" fill-rule="evenodd"/>
</clipPath>
</defs>
<g clip-path="url(#clip_0)">
<path transform="matrix(.75,0,0,.75,0,0)" d="M0 0H1400V1400H0Z" fill="#ffffff"/>
</g>
<g clip-path="url(#clip_1)">
<path transform="matrix(.75,0,0,.75,0,0)" d="M0 0H1400V1400H0Z" fill="#ffffff"/>
</g>
<g clip-path="url(#clip_2)">
<path transform="matrix(2.0485628,0,0,2.0485628,46.144067,46.144067)" d="M399.0293 68.46289C354.88087 24.313965 296.18263 0 233.74658 0 171.31055 0 112.61182 24.313965 68.46289 68.46289 24.313965 112.61133 0 171.31006 0 233.7461 0 296.18165 24.313965 354.88087 68.46289 399.0293 112.61182 443.1787 171.31055 467.4922 233.74658 467.4922 296.18263 467.4922 354.88087 443.1787 399.0293 399.0293 443.1787 354.88087 467.4922 296.18165 467.4922 233.7461 467.4922 171.31055 443.1787 112.61133 399.0293 68.46289ZM79.069339 79.069339C120.385257 37.753419 175.31739 15 233.74658 15 292.17579 15 347.10743 37.753419 388.42286 79.069339 429.73829 120.385257 452.4922 175.3169 452.4922 233.7461 452.4922 282.3178 436.75447 328.46516 407.71437 366.3905 384.6037 334.07533 347.6991 314.98347 307.62135 314.98347H159.87134C119.79321 314.98347 82.88867 334.0752 59.777589 366.39033 30.737427 328.46498 15 282.3177 15 233.7461 15 175.3169 37.753419 120.385257 79.069339 79.069339ZM233.74658 302.66114C293.80274 302.66114 342.66114 253.80176 342.66114 193.7461 342.66114 133.69043 293.80274 84.83154 233.74658 84.83154 173.69043 84.83154 124.83154 133.69043 124.83154 193.7461 124.83154 253.80176 173.69043 302.66114 233.74658 302.66114Z" fill="#737373"/>
</g>
</svg>
